<svg width="16" height="28" viewBox="0 0 16 28" fill="none" xmlns="http://www.w3.org/2000/svg">
<path d="M1.99742 25.7993V26.3206C1.99742 26.7765 2.23909 27.2043 2.64524 27.4618C2.7981 27.5588 2.96086 27.6446 3.13285 27.718C3.56854 27.9037 4.04249 27.9999 4.52224 27.9999H11.107C11.3428 27.9999 11.579 27.983 11.8098 27.9377C12.2077 27.8597 12.5729 27.7202 12.8969 27.5326C13.3271 27.2832 13.5807 26.8395 13.5807 26.3695V25.7995H1.99742V25.7993Z" fill="#1C4FF5"/>
<path d="M11.3884 0.28923L9.64873 0.0990732C8.44054 -0.0330244 7.21989 -0.0330244 6.0117 0.0990732L4.27201 0.28923C2.74291 0.456448 1.59091 1.65688 1.59091 3.08306V3.56762C1.59091 2.14144 2.74308 0.941015 4.27201 0.773797L6.0117 0.58364C7.21989 0.451543 8.44054 0.451543 9.64873 0.58364L11.3884 0.773797C12.9175 0.941015 14.0695 2.14144 14.0695 3.56762V3.08306C14.0697 1.65703 12.9175 0.456448 11.3884 0.28923Z" fill="#1C4FF5"/>
<path d="M11.6117 0.710497L9.76284 0.508319C8.47899 0.367995 7.18165 0.367995 5.89764 0.508319L4.04881 0.710497C2.42389 0.888157 1.19948 2.16389 1.19948 3.67945V23.9042V24.4191C1.19948 25.6206 1.95438 26.7124 3.13285 27.2148C3.56854 27.4005 4.04249 27.4967 4.52224 27.4967H7.83032H11.1078C11.3442 27.4967 11.5809 27.4795 11.8122 27.4341C13.3918 27.1234 14.4612 25.8491 14.4612 24.4191V23.9042V3.67961C14.4608 2.16405 13.2366 0.888157 11.6117 0.710497Z" fill="#1C4FF5"/>
<path d="M4.25343 1.18506C3.38871 1.33899 2.65481 1.80711 2.1865 2.45082C2.09051 2.58276 2.10708 2.75979 2.22168 2.87812C2.23056 2.8873 2.23962 2.89648 2.2485 2.90565C2.42988 3.09027 2.73833 3.11748 2.94362 2.95596C3.46232 2.54827 4.02098 1.78954 4.25343 1.18506Z" fill="#002E3F"/>
<path d="M3.77196 16.7395V14.8769C3.77196 14.0188 3.629 13.166 3.34822 12.3482L2.21074 9.03581C2.18393 8.9575 2.05908 8.97538 2.05908 9.05764V15.8965C2.05908 16.3399 2.373 16.7309 2.8314 16.8585L3.37811 17.0107C3.57435 17.0654 3.77196 16.9294 3.77196 16.7395Z" fill="#002E3F"/>
<path d="M2.05925 18.3534V22.8146C2.05925 23.0586 2.33303 23.2198 2.57163 23.1163L3.56495 22.6849C3.69134 22.63 3.77196 22.5125 3.77196 22.3832V17.974C3.77196 17.8792 3.69476 17.7995 3.59296 17.7894L2.82952 17.7128C2.41825 17.6715 2.05925 17.97 2.05925 18.3534Z" fill="#002E3F"/>
<path d="M11.3966 1.18506C12.2613 1.33899 12.9952 1.80711 13.4635 2.45082C13.5595 2.58276 13.543 2.75979 13.4284 2.87812C13.4195 2.8873 13.4104 2.89648 13.4015 2.90565C13.2202 3.09027 12.9117 3.11748 12.7064 2.95596C12.1877 2.54827 11.6291 1.78954 11.3966 1.18506Z" fill="#002E3F"/>
<path d="M11.5831 24.1973C9.09795 24.6135 6.55229 24.6135 4.06692 24.1973L3.46112 25.8278C3.40117 25.989 3.51868 26.1599 3.70177 26.1778L5.41977 26.3459C7.01872 26.5026 8.63117 26.5026 10.2301 26.3459L11.9481 26.1778C12.1311 26.1599 12.2486 25.9889 12.1888 25.8278L11.5831 24.1973Z" fill="#002E3F"/>
<path d="M11.8781 16.7395V14.8769C11.8781 14.0188 12.021 13.166 12.3018 12.3482L13.4393 9.03581C13.4661 8.9575 13.5909 8.97538 13.5909 9.05764V15.8965C13.5909 16.3399 13.277 16.7309 12.8186 16.8585L12.2719 17.0107C12.0757 17.0654 11.8781 16.9294 11.8781 16.7395Z" fill="#002E3F"/>
<path d="M13.5908 18.3534V22.8146C13.5908 23.0586 13.317 23.2198 13.0784 23.1163L12.0851 22.6849C11.9587 22.63 11.8781 22.5125 11.8781 22.3832V17.974C11.8781 17.8792 11.9553 17.7995 12.057 17.7894L12.8205 17.7128C13.2318 17.6715 13.5908 17.97 13.5908 18.3534Z" fill="#002E3F"/>
<path d="M10.6498 1.81505C8.79017 1.42461 6.85987 1.42461 5.00046 1.81505C3.62353 2.10408 2.64626 3.23759 2.64626 4.54527V8.46074L7.82519 8.00291L13.0041 8.46074V4.54527C13.004 3.23759 12.0265 2.10424 10.6498 1.81505Z" fill="#1C4FF5"/>
<path d="M9.71416 0.849571C9.08957 0.781228 8.45406 0.746582 7.82503 0.746582C7.196 0.746582 6.56048 0.781228 5.93589 0.849571L5.47271 0.900196C5.15828 0.934526 4.92139 1.18132 4.92139 1.47463V1.48C5.8727 1.28051 6.84946 1.17926 7.82486 1.17926C8.77907 1.17926 9.73466 1.27672 10.6665 1.46782C10.6665 1.17468 10.4296 0.927723 10.1152 0.893394L9.71416 0.849571Z" fill="#004D65"/>
<path d="M5.88722 12.6335L4.67972 12.7561C4.38373 12.7862 4.15948 13.0178 4.15948 13.2935V22.8932C4.15948 23.239 4.42797 23.5348 4.79586 23.5941C6.80011 23.9175 8.84978 23.9175 10.854 23.5941C11.2219 23.5348 11.4904 23.239 11.4904 22.8932V13.2935C11.4904 13.0178 11.2663 12.786 10.9703 12.7561L9.76284 12.6335C8.4749 12.5027 7.17517 12.5027 5.88722 12.6335Z" fill="#1C4FF5"/>
<path d="M4.15964 22.8621V22.8932C4.15964 23.2391 4.42812 23.5349 4.79601 23.5942C6.80026 23.9176 8.84994 23.9176 10.8542 23.5942C11.2221 23.5349 11.4906 23.2391 11.4906 22.8932V22.8621H4.15964Z" fill="#1C4FF5"/>
<path d="M1.56019 9.95361L0 10.1681C0 10.2656 0.0934231 10.3401 0.197436 10.3259L1.4075 10.1594C1.49512 10.1474 1.56019 10.0776 1.56019 9.99554V9.95361Z" fill="#004D65"/>
<path d="M1.56019 9.95374L0 10.1683V10.1376C0 9.88128 0.202729 9.66344 0.47651 9.62579L1.24217 9.52043C1.40972 9.49733 1.56019 9.61756 1.56019 9.7745V9.95374Z" fill="#1C4FF5"/>
<path d="M1.80802 9.95369H1.5602V9.77856H1.80802C1.84303 9.77856 1.87121 9.80483 1.87121 9.83726V9.89516C1.87121 9.92743 1.84303 9.95369 1.80802 9.95369Z" fill="#1C4FF5"/>
<path d="M14.4398 9.95361L16 10.1681C16 10.2656 15.9066 10.3401 15.8026 10.3259L14.5925 10.1594C14.5049 10.1474 14.4398 10.0776 14.4398 9.99554V9.95361Z" fill="#004D65"/>
<path d="M14.4398 9.95374L16 10.1683V10.1376C16 9.88128 15.7973 9.66344 15.5235 9.62579L14.7579 9.52043C14.5903 9.49733 14.4398 9.61756 14.4398 9.7745V9.95374Z" fill="#1C4FF5"/>
<path d="M14.192 9.95369H14.4398V9.77856H14.192C14.157 9.77856 14.1286 9.80483 14.1286 9.83726V9.89516C14.1286 9.92743 14.157 9.95369 14.192 9.95369Z" fill="#1C4FF5"/>
<path d="M12.993 4.31172C12.9906 4.28498 12.986 4.25888 12.9828 4.23246C12.9768 4.18231 12.9707 4.13216 12.9618 4.0828C12.956 4.051 12.9481 4.01984 12.9413 3.98851C12.9319 3.94548 12.9227 3.90245 12.911 3.86005C12.9017 3.82604 12.8906 3.7925 12.88 3.75896C12.8678 3.72052 12.8557 3.68223 12.8419 3.64458C12.8289 3.60915 12.8144 3.57434 12.7999 3.53954C12.7855 3.50505 12.771 3.47072 12.7551 3.43703C12.7382 3.4008 12.7201 3.36488 12.7015 3.32945C12.6856 3.29891 12.6692 3.2687 12.6521 3.2388C12.6309 3.20178 12.6089 3.16508 12.5859 3.12901C12.5691 3.10259 12.5517 3.07664 12.5341 3.05086C12.5081 3.01305 12.4817 2.97555 12.4538 2.93885C12.4373 2.91702 12.42 2.89582 12.4028 2.87446C12.3715 2.8357 12.3397 2.7971 12.3063 2.75993C12.2916 2.74347 12.2759 2.72765 12.2608 2.71136C12.2229 2.67102 12.1845 2.63099 12.1442 2.59271C12.1343 2.58322 12.1237 2.57451 12.1138 2.56518C11.7939 2.26998 11.4018 2.03885 10.9582 1.89868L11.5838 7.59486L3.87442 7.6352L4.65785 1.91054C4.14342 2.0795 3.69919 2.37107 3.35966 2.74331C3.35334 2.75027 3.34668 2.75692 3.34036 2.76388C3.30261 2.80612 3.26692 2.8501 3.2319 2.89424C3.21909 2.91038 3.20594 2.9262 3.19365 2.94265C3.16359 2.98236 3.13523 3.02333 3.10722 3.06462C3.09202 3.08708 3.07682 3.10955 3.06231 3.13249C3.03805 3.17061 3.01517 3.20953 2.99279 3.24893C2.97708 3.27661 2.96188 3.30445 2.94719 3.33277C2.92789 3.36963 2.90945 3.40697 2.89203 3.44462C2.877 3.47689 2.86299 3.50964 2.84933 3.54254C2.83447 3.57814 2.81995 3.61405 2.80663 3.65028C2.79314 3.68698 2.78135 3.72432 2.76957 3.76165C2.75881 3.79567 2.74771 3.82968 2.73831 3.86432C2.72704 3.90593 2.71782 3.94833 2.70859 3.99073C2.70159 4.02237 2.69391 4.05385 2.6881 4.08596C2.67922 4.13485 2.67324 4.18452 2.66726 4.2342C2.66402 4.26078 2.65941 4.28704 2.65702 4.31377C2.65018 4.39066 2.64626 4.46833 2.64626 4.54664V8.46211L7.82519 8.00428L13.0041 8.46211V4.54664C13.004 4.46691 13 4.38892 12.993 4.31172Z" fill="#1C4FF5"/>
<path d="M5.11915 7.38685L3.17587 7.77334C2.80064 7.84801 2.56887 8.19779 2.66708 8.5414L3.68295 12.0985C3.74614 12.3199 3.97723 12.4629 4.22214 12.4325L5.21513 12.3091C6.95089 12.0933 8.70988 12.0933 10.4456 12.3091L11.4386 12.4325C11.6835 12.4629 11.9146 12.3199 11.9778 12.0985L12.9937 8.5414C13.0919 8.19779 12.86 7.84785 12.4849 7.77334L10.5416 7.38685C8.75412 7.03153 6.90615 7.03153 5.11915 7.38685Z" fill="#002E3F"/>
</svg>
