<svg width="32" height="40" viewBox="0 0 32 40" fill="none" xmlns="http://www.w3.org/2000/svg">
<path d="M16 39C24.2844 39 31 32.2844 31 24C31 18.1564 27.2621 12.4111 23.5869 8.16309C22.0052 6.34445 20.311 4.62653 18.5146 3.01953L18.5117 3.0166C17.7781 2.35438 17.0224 1.71629 16.2471 1.10352C16.1442 1.02354 16.0672 1.0023 16.0146 1H16C15.9427 1 15.8608 1.01932 15.7539 1.10156C14.9784 1.71443 14.2225 2.35381 13.4883 3.0166L13.4854 3.01953C11.689 4.62653 9.9948 6.34445 8.41309 8.16309C4.73785 12.4111 1 18.1564 1 24C1 32.2844 7.71562 39 16 39Z" fill="#1C4FF5" stroke="black" stroke-width="2"/>
<path d="M12.6667 26.6C13.357 26.6 13.9167 26.0627 13.9167 25.4C13.9167 24.7372 13.357 24.2 12.6667 24.2C11.9763 24.2 11.4167 24.7372 11.4167 25.4C11.4167 26.0627 11.9763 26.6 12.6667 26.6Z" fill="white"/>
<path d="M24.5675 23.3704C24.6625 22.5832 24.75 21.6864 24.75 21.0696C24.75 16.648 19.3833 15 16 15C13.805 15 12.2208 16.1304 11.6883 16.5696C10.0217 16.6616 7.25 17.68 7.25 21.0696C7.25 21.6952 7.33667 22.588 7.43083 23.3712C7.00903 23.5342 6.64751 23.8143 6.39259 24.1758C6.13767 24.5372 6.00097 24.9635 6 25.4C6.00173 25.9527 6.22053 26.4845 6.61273 26.8892C7.00493 27.2939 7.54168 27.5417 8.11583 27.5832C9.245 30.7296 12.3492 33 16 33C19.6508 33 22.755 30.7304 23.8842 27.5832C24.4583 27.5417 24.9951 27.2939 25.3873 26.8892C25.7795 26.4845 25.9983 25.9527 26 25.4C25.9991 24.9632 25.8622 24.5366 25.607 24.175C25.3517 23.8133 24.9898 23.5332 24.5675 23.3704ZM22.8125 26.8616L22.8108 26.8656V26.868C21.9558 29.712 19.2292 31.8 16 31.8C12.4792 31.8 9.5575 29.3176 9.0075 26.0792L9.83917 23.2864C10.5817 23.06 12.245 22.4192 12.9733 21.0664C14.0942 22.0832 16.6058 23.3312 22.195 23.3976L22.9933 26.0752C22.9493 26.3405 22.889 26.6031 22.8125 26.8616Z" fill="white"/>
<path d="M19.3333 26.6C20.0237 26.6 20.5833 26.0627 20.5833 25.4C20.5833 24.7372 20.0237 24.2 19.3333 24.2C18.643 24.2 18.0833 24.7372 18.0833 25.4C18.0833 26.0627 18.643 26.6 19.3333 26.6Z" fill="white"/>
<path d="M17.6492 28.3679C17.2045 28.7743 16.614 29.001 16 29.001C15.386 29.001 14.7955 28.7743 14.3508 28.3679C14.2314 28.2573 14.0711 28.1969 13.9052 28.1998C13.7393 28.2027 13.5814 28.2688 13.4663 28.3835C13.3511 28.4982 13.2881 28.6521 13.2912 28.8113C13.2942 28.9706 13.3631 29.1221 13.4825 29.2327C14.1767 29.8759 15.0883 30.1967 16 30.1967C16.9117 30.1967 17.8233 29.8759 18.5175 29.2327C18.6318 29.121 18.6961 28.971 18.6969 28.8145C18.6976 28.658 18.6348 28.5074 18.5216 28.3947C18.4085 28.282 18.254 28.2162 18.0911 28.2112C17.9281 28.2062 17.7696 28.2624 17.6492 28.3679Z" fill="white"/>
</svg>
