<svg width="14" height="32" viewBox="0 0 14 32" fill="none" xmlns="http://www.w3.org/2000/svg">
<g clip-path="url(#clip0_402_5505)">
<path d="M8.73358 18.1759C8.38905 18.1759 8.11014 17.9769 8.11014 17.7241C8.11014 17.4766 8.38905 17.2722 8.73358 17.2722L10.1609 17.2722C10.5055 17.2722 10.7844 17.4712 10.7844 17.7241C10.7844 17.9715 10.5055 18.1759 10.1609 18.1759L8.73358 18.1759Z" fill="#6A6B6A"/>
<path d="M3.44531 18.1759C3.10078 18.1759 2.82188 17.9769 2.82188 17.7241C2.82188 17.4766 3.10078 17.2722 3.44531 17.2722L4.87266 17.2722C5.21719 17.2722 5.49609 17.4712 5.49609 17.7241C5.49609 17.9715 5.21719 18.1759 4.87266 18.1759L3.44531 18.1759Z" fill="#6A6B6A"/>
<path d="M4.62109 28.1217C4.36405 28.1217 4.16171 27.8581 4.16171 27.5354L4.16171 16.4061C4.16171 16.0834 4.36952 15.8198 4.62109 15.8198C4.87812 15.8198 5.08046 16.0834 5.08046 16.4061L5.08046 27.5354C5.08593 27.8581 4.87812 28.1217 4.62109 28.1217Z" fill="#898988"/>
<path d="M5.24999 24.7113C4.82343 24.7113 4.47343 24.3724 4.47343 23.9475L4.47343 15.3463C4.47343 14.9268 4.81796 14.5825 5.24999 14.5825L8.74999 14.5825C9.17655 14.5825 9.52655 14.9214 9.52655 15.3463L9.52655 23.9475C9.52655 24.367 9.18202 24.7113 8.74999 24.7113L5.24999 24.7113Z" fill="#1C4FF5"/>
<path d="M7.03281 8.56348L7.03281 20.5803L5.31562 20.3651L3.59296 14.0931C3.59296 14.0931 3.4289 13.4961 3.59296 12.8506C3.75703 12.2051 5.92265 8.8647 5.92265 8.8647L7.03281 8.56348Z" fill="#C1C1C1"/>
<path d="M7.03281 13.8994L3.55468 13.8994C3.57109 14.0178 3.59296 14.0931 3.59296 14.0931L5.31562 20.365L7.03281 20.5802L7.03281 13.8994Z" fill="#A2A3A3"/>
<path d="M7.03281 13.7973L7.03281 8.55811L5.92265 8.85933C5.92265 8.85933 3.75702 12.2051 3.59296 12.8452C3.49999 13.211 3.51093 13.5606 3.53827 13.7973L7.03281 13.7973Z" fill="#C1C1C1"/>
<path d="M3.75702 13.6251C3.98124 13.0603 4.30936 12.5224 4.61561 11.9845C5.28827 10.8119 5.96093 9.59085 6.95624 8.57959L5.92264 8.8593C5.92264 8.8593 3.75702 12.2051 3.59296 12.8452C3.42889 13.4907 3.59296 14.0877 3.59296 14.0877L3.60389 14.1308C3.63671 13.9586 3.69139 13.7865 3.75702 13.6251Z" fill="#898988"/>
<path d="M6.96719 8.56348L6.96719 20.5803L8.68438 20.3651L10.407 14.0878C10.407 14.0878 10.5711 13.4907 10.407 12.8452C10.243 12.1997 8.07735 8.85932 8.07735 8.85932L6.96719 8.56348Z" fill="#C1C1C1"/>
<path d="M6.96719 13.8994L6.96719 20.5802L8.68438 20.365L10.407 14.0877C10.407 14.0877 10.4289 14.0178 10.4453 13.894L6.96719 13.894L6.96719 13.8994Z" fill="#A2A3A3"/>
<path d="M10.4558 13.7973C10.4832 13.5606 10.4996 13.211 10.4012 12.8452C10.2371 12.1997 8.07146 8.85933 8.07146 8.85933L6.96131 8.55811L6.96131 13.7973L10.4558 13.7973Z" fill="#C1C1C1"/>
<path d="M10.243 13.6251C10.0188 13.0603 9.69063 12.5224 9.38438 11.9845C8.71172 10.8119 8.03906 9.59085 7.04375 8.57959L8.07735 8.8593C8.07735 8.8593 10.243 12.2051 10.407 12.8452C10.5711 13.4907 10.407 14.0877 10.407 14.0877L10.3961 14.1308C10.3633 13.9586 10.3086 13.7865 10.243 13.6251Z" fill="#898988"/>
<path d="M7.04374 20.3867C6.61718 20.3867 5.31562 20.7202 5.31562 20.3598L6.27265 9.51024C6.27265 9.14984 6.61718 8.85937 7.04921 8.85937L7.30624 8.85937C7.73281 8.85937 8.08281 9.14984 8.08281 9.51024L9.0289 18.859C9.0289 19.2194 7.73827 20.3867 7.31171 20.3867L7.04374 20.3867Z" fill="#D7D7D7"/>
<path d="M7.04376 20.3867L7.30079 20.3867C7.72735 20.3867 9.01797 19.2194 9.01797 18.859L8.57501 14.4912L5.82969 14.4912L5.31016 20.3598C5.31563 20.7202 6.61719 20.3867 7.04376 20.3867Z" fill="#A2A3A3"/>
<path d="M9.69611 8.39676C9.69611 8.39676 9.22579 7.07889 7.98439 6.81532C6.74298 6.55174 4.76876 6.89062 4.16173 8.47744L9.69611 8.39676Z" fill="#1C4FF5"/>
<path d="M9.28047 7.31543C9.12188 7.31543 8.9961 7.43915 8.9961 7.59514L8.9961 8.35897C8.9961 8.51496 9.12188 8.63868 9.28047 8.63868C9.43907 8.63868 9.56485 8.51496 9.56485 8.35897L9.56485 7.59514C9.55938 7.43915 9.4336 7.31543 9.28047 7.31543Z" fill="#1C4FF5"/>
<path d="M9.95286 7.31553C9.95286 7.31553 9.73958 6.34192 9.08333 6.51943C8.74426 6.61087 8.42708 7.65441 8.62395 7.99867C8.70598 8.1439 9.55364 8.1708 9.85442 8.03632C10.013 7.97177 10.0185 7.59524 9.95286 7.31553Z" fill="#1C4FF5"/>
<path d="M9.85468 8.04172C9.96406 7.9933 10.0023 7.78352 9.9914 7.56836L8.57499 7.56836C8.55859 7.74587 8.56953 7.90186 8.62968 8.00406C8.70624 8.1493 9.5539 8.17619 9.85468 8.04172Z" fill="#A8A7A1"/>
<path d="M9.39532 6.5249C9.81094 6.66476 9.95313 7.31562 9.95313 7.31562C10.0188 7.58996 10.0133 7.96649 9.85469 8.03642C9.75079 8.08483 9.57579 8.11172 9.39532 8.12248L9.39532 6.5249Z" fill="#1C4FF5"/>
<path d="M4.71953 7.31543C4.56094 7.31543 4.43516 7.43915 4.43516 7.59514L4.43516 8.35897C4.43516 8.51496 4.56094 8.63868 4.71953 8.63868C4.87813 8.63868 5.00391 8.51496 5.00391 8.35897L5.00391 7.59514C5.00391 7.43915 4.87813 7.31543 4.71953 7.31543Z" fill="#1C4FF5"/>
<path d="M5.3922 7.31553C5.3922 7.31553 5.17892 6.34192 4.52267 6.51943C4.1836 6.61087 3.86642 7.65441 4.06329 7.99867C4.14532 8.1439 4.99298 8.1708 5.29376 8.03632C5.45235 7.97177 5.46329 7.59524 5.3922 7.31553Z" fill="#1C4FF5"/>
<path d="M5.29923 8.04172C5.40861 7.9933 5.44689 7.78352 5.43595 7.56836L4.01954 7.56836C4.00314 7.74587 4.01408 7.90186 4.07423 8.00406C4.15079 8.1493 4.99845 8.17619 5.29923 8.04172Z" fill="#A8A7A1"/>
<path d="M4.83987 6.5249C5.25002 6.65938 5.39768 7.31562 5.39768 7.31562C5.46331 7.58996 5.45784 7.96649 5.29924 8.03642C5.19534 8.08483 5.02034 8.11172 4.83987 8.12248L4.83987 6.5249Z" fill="#1C4FF5"/>
<path d="M7.20781 -3.39446e-08C7.63438 -1.5299e-08 7.98437 1.26408 7.98437 1.74281L7.98437 8.98302C7.98437 9.46714 7.63984 9.85443 7.20781 9.85443L6.78672 9.85443C6.36016 9.85443 6.01016 9.46176 6.01016 8.98302L6.01016 1.68902C6.01016 1.20491 6.35469 -7.12359e-08 6.78672 -5.23512e-08" fill="#1C4FF5"/>
<path d="M7.98437 8.98845L7.98438 4.9165L6.01563 4.9165L6.01562 8.98845C6.01562 9.47256 6.36016 9.85986 6.79219 9.85986L7.21328 9.85986C7.63984 9.85986 7.98437 9.46718 7.98437 8.98845Z" fill="#1C4FF5"/>
<path d="M6.89062 8.22458C6.54062 8.22458 6.01563 7.97176 5.90625 7.56833L5.70937 5.9331C5.70937 5.5727 5.99375 5.27686 6.33828 5.27686L7.65625 5.27686C8.00625 5.27686 8.28516 5.56732 8.28516 5.9331L8.08828 7.56833C8.08828 7.92873 7.48672 8.22458 7.13672 8.22458L6.89062 8.22458Z" fill="#1C4FF5"/>
<path d="M8.26328 6.14288L8.29062 5.9331C8.29062 5.5727 8.00624 5.27686 7.66171 5.27686L6.34374 5.27686C5.99374 5.27686 5.71484 5.56732 5.71484 5.9331L5.74218 6.14288L8.26328 6.14288Z" fill="#FFFCE6"/>
<path d="M8.26328 6.14297L8.29062 5.93319C8.29062 5.91705 8.29062 5.89553 8.29062 5.87939L5.71484 5.87939C5.71484 5.89553 5.71484 5.91167 5.71484 5.93318L5.74218 6.14297L8.26328 6.14297Z" fill="#878888"/>
<path d="M7.07657 10.1664L7.18048 7.71359C7.18048 7.71359 6.34376 7.68132 5.31017 7.99331C4.51173 8.23536 3.63673 8.75175 2.69611 9.23587L3.02423 9.59626C3.02423 9.59626 4.59923 9.17132 4.92736 9.46717C5.26095 9.75764 6.44767 10.2686 7.07657 10.1664Z" fill="#1C4FF5"/>
<path d="M1.18126 7.98781C1.81564 7.90713 2.31329 7.69196 2.29142 7.5037C2.26954 7.31543 1.73908 7.22937 1.11017 7.31005C0.475796 7.39074 -0.0218611 7.6059 1.40442e-05 7.79417C0.0218889 7.98243 0.552358 8.0685 1.18126 7.98781Z" fill="#878888"/>
<path d="M1.18126 7.98787C0.546889 8.06856 0.0164203 7.98249 1.40512e-05 7.79423C1.40516e-05 7.78347 1.42908e-05 7.76733 0.00548314 7.75657C0.125796 7.89643 0.601576 7.9556 1.15939 7.88567C1.75001 7.81036 2.22033 7.61672 2.26408 7.43921C2.28048 7.46073 2.29142 7.48224 2.29142 7.50376C2.31329 7.69202 1.81564 7.90719 1.18126 7.98787Z" fill="#626362"/>
<path d="M1.12111 7.31016C1.12111 7.26713 1.13751 7.22947 1.16486 7.20796C1.22501 7.15417 1.32892 7.1703 1.37267 7.17568C1.37814 7.17568 1.38361 7.17568 1.38907 7.17568C1.40001 7.17568 1.48204 7.18644 1.8047 7.2241C2.39532 7.29402 3.48907 7.41774 3.61486 7.41774C3.81173 7.41774 3.83907 7.54684 3.83907 7.55222L4.30939 9.39723L4.2547 9.40799L3.78439 7.56298C3.78439 7.5576 3.76251 7.47153 3.61486 7.47153C3.48361 7.47153 2.42814 7.34781 1.79923 7.27789C1.57501 7.25099 1.40001 7.22947 1.38907 7.22947C1.38361 7.22947 1.37814 7.22947 1.3672 7.22947C1.32892 7.22409 1.24142 7.21334 1.19767 7.25099C1.18126 7.26713 1.17032 7.28864 1.17032 7.31554L1.12111 7.31016Z" fill="#797A79"/>
<path d="M1.0008 10.2148C0.929711 10.2363 0.853148 10.1986 0.831273 10.1341L0.743773 9.8221C0.727367 9.75755 0.771116 9.68763 0.84221 9.66611L2.89846 9.09055C2.96955 9.06903 3.04612 9.10669 3.06799 9.17124L3.15549 9.48322C3.1719 9.54777 3.12815 9.6177 3.05705 9.63921L1.0008 10.2148Z" fill="#313030"/>
<path d="M3.18282 9.71997C3.14454 9.73073 3.11173 9.71997 3.10626 9.69846L2.89845 8.99918C2.89298 8.97767 2.91485 8.95077 2.95314 8.94001C2.99142 8.92925 3.02423 8.94001 3.0297 8.96153L3.23751 9.66081C3.24298 9.68232 3.2211 9.70922 3.18282 9.71997Z" fill="#0C2518"/>
<path d="M7.00002 10.1663L7.18049 7.7135C7.18049 7.7135 7.79846 7.66509 8.64612 7.93942C9.38987 8.18148 10.2922 8.71938 11.2985 9.23577L10.9703 9.59617C10.9703 9.59617 9.39534 9.17122 9.06721 9.46707C8.73909 9.75754 7.62893 10.2686 7.00002 10.1663Z" fill="#1C4FF5"/>
<path d="M12.8188 7.98781C12.1844 7.90713 11.6867 7.69196 11.7086 7.5037C11.7305 7.31543 12.261 7.22937 12.8899 7.31005C13.5188 7.39074 14.0219 7.6059 14 7.79417C13.9781 7.98243 13.4477 8.0685 12.8188 7.98781Z" fill="#878888"/>
<path d="M12.8187 7.98787C13.4531 8.06856 13.9836 7.98249 14 7.79423C14 7.78347 14 7.76733 13.9945 7.75657C13.8742 7.89643 13.3984 7.9556 12.8406 7.88567C12.25 7.81036 11.7797 7.61672 11.7359 7.43921C11.7195 7.46073 11.7086 7.48224 11.7086 7.50376C11.6867 7.69202 12.1844 7.90719 12.8187 7.98787Z" fill="#626362"/>
<path d="M9.5375 9.39175L10.1609 7.54136C10.1609 7.54136 10.1883 7.41226 10.3852 7.41226C10.5109 7.41226 11.6047 7.28316 12.1953 7.21862C12.5234 7.18096 12.6055 7.1702 12.6109 7.1702C12.6164 7.1702 12.6219 7.1702 12.6273 7.1702C12.6766 7.16483 12.775 7.15407 12.8352 7.20248C12.8625 7.22937 12.8789 7.26165 12.8789 7.30468L12.8242 7.30468C12.8242 7.27779 12.8133 7.25627 12.7969 7.24013C12.7531 7.20248 12.6656 7.21324 12.6273 7.21862C12.6164 7.21862 12.6109 7.21862 12.6055 7.21862C12.5945 7.21862 12.4195 7.24013 12.1953 7.26703C11.5664 7.34233 10.5055 7.46067 10.3797 7.46067C10.2266 7.46067 10.2102 7.54674 10.2102 7.55212L9.58672 9.40251L9.5375 9.39175Z" fill="#797A79"/>
<path d="M12.9992 10.2148C13.0703 10.2363 13.1469 10.1986 13.1688 10.1341L13.2563 9.8221C13.2727 9.75755 13.2289 9.68763 13.1578 9.66611L11.1016 9.09055C11.0305 9.06903 10.9539 9.10669 10.932 9.17124L10.8445 9.48322C10.8281 9.54777 10.8719 9.6177 10.943 9.63921L12.9992 10.2148Z" fill="#313030"/>
<path d="M10.8172 9.71997C10.8555 9.73073 10.8883 9.71997 10.8938 9.69846L11.1016 8.99918C11.1071 8.97767 11.0852 8.95077 11.0469 8.94001C11.0086 8.92925 10.9758 8.94001 10.9703 8.96153L10.7625 9.66081C10.7571 9.68232 10.7789 9.70922 10.8172 9.71997Z" fill="#0C2518"/>
<path d="M7.18047 10.1019C6.52969 10.1019 5.99922 9.75763 5.99922 9.33268C5.99922 8.90774 6.52969 8.56348 7.18047 8.56348C7.83126 8.56348 8.36172 8.90774 8.36172 9.33268C8.36172 9.75763 7.83672 10.1019 7.18047 10.1019Z" fill="#AEAEAE"/>
<path d="M7.18047 10.1019C6.52969 10.1019 5.99922 9.75763 5.99922 9.33268C5.99922 8.90774 6.52969 8.56348 7.18047 8.56348C7.83126 8.56348 8.36172 8.90774 8.36172 9.33268C8.36172 9.75763 7.83672 10.1019 7.18047 10.1019Z" fill="#AEAEAE"/>
<path d="M7.18046 10.1018C6.68827 10.1018 6.28358 9.84362 6.28358 9.52088C6.28358 9.19814 6.6828 8.93994 7.18046 8.93994C7.67811 8.93994 8.07733 9.19814 8.07733 9.52088C8.07733 9.83824 7.67811 10.1018 7.18046 10.1018Z" fill="white"/>
<path d="M4.86719 24.9749C4.76329 24.9749 4.67579 24.8189 4.67579 24.6306C4.67579 24.437 4.75782 24.2864 4.86719 24.2864L8.93594 24.2864C9.03985 24.2864 9.12735 24.4424 9.12735 24.6306C9.12735 24.8243 9.04532 24.9749 8.93594 24.9749L4.86719 24.9749Z" fill="#1C4FF5"/>
<path d="M7.67813 26.3895C7.61797 26.3895 7.56875 26.3088 7.56875 26.2012C7.56875 26.099 7.61797 26.0129 7.67813 26.0129L9.1875 26.0129C9.24766 26.0129 9.29687 26.099 9.29687 26.2012C9.29687 26.3034 9.24766 26.3895 9.1875 26.3895L7.67813 26.3895Z" fill="#1C4FF5"/>
<path d="M9.12737 27.3254C8.96877 27.3254 8.84299 27.2017 8.84299 27.0457L8.84299 26.2819C8.84299 26.1259 8.96877 26.0022 9.12737 26.0022C9.28596 26.0022 9.41174 26.1259 9.41174 26.2819L9.41174 27.0457C9.40627 27.2017 9.28049 27.3254 9.12737 27.3254Z" fill="#1C4FF5"/>
<path d="M9.79996 27.3202C9.79996 27.3202 9.58668 28.2938 8.93043 28.1163C8.59137 28.0249 8.27418 26.9813 8.47106 26.6371C8.55309 26.4918 9.40075 26.4649 9.70153 26.5994C9.86012 26.6693 9.86559 27.0459 9.79996 27.3202Z" fill="#1C4FF5"/>
<path d="M9.70158 26.5992C9.81095 26.6477 9.84923 26.8574 9.83829 27.0726L8.42189 27.0726C8.40548 26.8951 8.41642 26.7391 8.47658 26.6369C8.55314 26.4863 9.40079 26.4648 9.70158 26.5992Z" fill="#A8A7A1"/>
<path d="M9.24215 28.111C9.65231 27.9765 9.79996 27.3203 9.79996 27.3203C9.86559 27.046 9.86012 26.6694 9.70153 26.5995C9.59762 26.5511 9.42262 26.5242 9.24215 26.5134L9.24215 28.111Z" fill="#1C4FF5"/>
<path d="M6.3219 26.3895C6.38206 26.3895 6.43127 26.3088 6.43127 26.2012C6.43127 26.099 6.38206 26.0129 6.3219 26.0129L4.81252 26.0129C4.75237 26.0129 4.70315 26.099 4.70315 26.2012C4.70315 26.3034 4.75237 26.3895 4.81252 26.3895L6.3219 26.3895Z" fill="#1C4FF5"/>
<path d="M4.87267 27.3254C5.03126 27.3254 5.15704 27.2017 5.15704 27.0457L5.15704 26.2819C5.15704 26.1259 5.03126 26.0022 4.87267 26.0022C4.71407 26.0022 4.58829 26.1259 4.58829 26.2819L4.58829 27.0457C4.59376 27.2017 4.71954 27.3254 4.87267 27.3254Z" fill="#1C4FF5"/>
<path d="M4.20001 27.3202C4.20001 27.3202 4.41329 28.2938 5.06954 28.1163C5.4086 28.0249 5.72579 26.9813 5.52892 26.6371C5.44688 26.4918 4.59923 26.4649 4.29845 26.5994C4.14532 26.6693 4.13438 27.0459 4.20001 27.3202Z" fill="#1C4FF5"/>
<path d="M4.29846 26.5992C4.18908 26.6477 4.1508 26.8574 4.16174 27.0726L5.57814 27.0726C5.59455 26.8951 5.58361 26.7391 5.52346 26.6369C5.44689 26.4863 4.59924 26.4648 4.29846 26.5992Z" fill="#A8A7A1"/>
<path d="M4.75781 28.1108C4.34766 27.9763 4.2 27.32 4.2 27.32C4.13438 27.0457 4.13984 26.6692 4.29844 26.5992C4.40234 26.5508 4.57734 26.5239 4.75781 26.5132L4.75781 28.1108Z" fill="#1C4FF5"/>
<path d="M8.99065 25.3407C8.63518 25.3407 8.35081 25.061 8.35081 24.7114C8.35081 24.3617 8.63518 24.082 8.99065 24.082C9.34612 24.082 9.63049 24.3617 9.63049 24.7114C9.62502 25.0556 9.34065 25.3407 8.99065 25.3407Z" fill="#1C4FF5"/>
<path d="M5.1133 25.3407C4.75783 25.3407 4.47346 25.061 4.47346 24.7114C4.47346 24.3617 4.75783 24.082 5.1133 24.082C5.46877 24.082 5.75314 24.3617 5.75314 24.7114C5.74767 25.0556 5.4633 25.3407 5.1133 25.3407Z" fill="#1C4FF5"/>
<path d="M6.85236 31.9999C6.4258 31.9999 6.0758 31.6073 6.0758 31.1285L6.0758 23.8292C6.0758 23.345 6.42033 22.1401 6.85236 22.1401L7.27346 22.1401C7.70002 22.1401 8.05002 23.4042 8.05002 23.883L8.05002 31.1232C8.05002 31.6073 7.70549 31.9946 7.27346 31.9946L6.85236 31.9946L6.85236 31.9999Z" fill="#1C4FF5"/>
<path d="M8.09924 30.3863L8.09924 28.3853L6.02112 28.3853L6.02112 30.3863L8.09924 30.3863Z" fill="#1C4FF5"/>
<path d="M8.09924 29.1814L8.09924 28.3853L6.02112 28.3853L6.02112 29.1814L8.09924 29.1814Z" fill="#A8A7A1"/>
<path d="M8.09924 30.3863L8.09924 28.3853L7.56877 28.3853L7.56877 30.3863L8.09924 30.3863Z" fill="#1C4FF5"/>
<path d="M8.87579 29.0629L8.87579 24.0658C8.87579 23.657 8.53126 23.3289 8.09923 23.3289L6.02111 23.3289C5.59454 23.3289 5.24454 23.657 5.24454 24.0658L5.24454 29.0629C5.24454 29.4717 5.58907 29.7999 6.02111 29.7999L8.09923 29.7999C8.52579 29.7999 8.87579 29.4717 8.87579 29.0629ZM6.1797 29.5847C5.81329 29.5847 5.51251 29.2835 5.51251 28.9069L5.51251 24.3132C5.51251 23.9367 5.80782 23.6355 6.1797 23.6355L7.96251 23.6355C8.32892 23.6355 8.6297 23.9367 8.6297 24.3132L8.6297 28.9069C8.6297 29.2835 8.33439 29.5847 7.96251 29.5847L6.1797 29.5847Z" fill="#C4C4C3"/>
<path d="M5.4086 25.3245C5.31563 25.3245 5.24454 25.2545 5.24454 25.1631C5.24454 25.0716 5.31563 25.0017 5.4086 25.0017L8.63516 25.0017C8.72813 25.0017 8.79922 25.0716 8.79922 25.1631C8.79922 25.2545 8.72813 25.3245 8.63516 25.3245L5.4086 25.3245Z" fill="#C4C4C3"/>
<path d="M5.4086 26.8791C5.31563 26.8791 5.24454 26.8092 5.24454 26.7178C5.24454 26.6263 5.31563 26.5564 5.4086 26.5564L8.63516 26.5564C8.72813 26.5564 8.79922 26.6263 8.79922 26.7178C8.79922 26.8092 8.72813 26.8791 8.63516 26.8791L5.4086 26.8791Z" fill="#C4C4C3"/>
<path d="M5.4086 28.439C5.31563 28.439 5.24454 28.369 5.24454 28.2776C5.24454 28.1861 5.31563 28.1162 5.4086 28.1162L8.63516 28.1162C8.72813 28.1162 8.79922 28.1861 8.79922 28.2776C8.79922 28.369 8.72813 28.439 8.63516 28.439L5.4086 28.439Z" fill="#C4C4C3"/>
<path d="M8.13749 23.3291C8.47655 23.3344 8.97421 23.2484 9.2039 22.9203C9.66327 22.264 9.23671 20.9892 9.06171 20.2791C8.8539 19.4239 8.68437 18.7945 8.42187 17.9661C8.27968 17.5197 8.17577 17.0087 8.00624 16.5676C7.8914 16.2771 7.34452 15.7661 6.93437 15.8253C6.55156 15.8844 6.12499 16.2341 6.00468 16.5461C5.84062 16.9818 5.59999 17.8155 5.45781 18.2566C5.19531 19.085 5.14062 19.4239 4.9328 20.2738C4.75781 20.9838 4.33124 22.264 4.79062 22.9149C5.02577 23.243 5.51796 23.3291 5.85702 23.3237C5.85702 23.3237 6.74296 23.3129 6.99452 23.3075C7.25155 23.3183 8.13749 23.3291 8.13749 23.3291Z" fill="#212120"/>
<path d="M6.42578 18.2297C6.54609 18.2297 6.66094 18.2297 6.78125 18.2297C7.08203 18.2297 7.38281 18.2404 7.68359 18.2297C7.73281 18.2297 7.78203 18.2243 7.82578 18.2243C7.84765 18.2243 7.86953 18.2351 7.89687 18.2297C8.0664 18.1974 7.91328 17.8747 7.89141 17.7671C7.85859 17.6272 7.82578 17.4874 7.79297 17.3529C7.77656 17.2884 7.76015 17.2238 7.74375 17.1539C7.73281 17.1485 7.72734 17.1431 7.7164 17.1377C7.71094 17.1377 7.70547 17.1324 7.7 17.1324C7.68906 17.1377 7.67265 17.1377 7.66172 17.1324C7.65078 17.127 7.63984 17.1162 7.6289 17.1055L6.41484 17.1055C6.40937 17.1108 6.40391 17.1162 6.39844 17.1216C6.35469 17.1431 6.32734 17.1754 6.31094 17.2184C6.3 17.283 6.28359 17.3529 6.27265 17.4175C6.24531 17.5573 6.21797 17.6918 6.19062 17.8316C6.17422 17.9016 6.16328 17.9661 6.14687 18.036C6.13594 18.0845 6.10859 18.149 6.13594 18.192C6.1414 18.1974 6.1414 18.2028 6.14687 18.2082C6.20156 18.2673 6.34922 18.2297 6.42578 18.2297Z" fill="#222221"/>
<path d="M6.37111 16.8634C6.36564 16.9064 6.36564 16.971 6.40939 16.9925C6.41486 16.9979 6.42032 16.9979 6.42579 17.0033L7.57423 17.0033C7.60704 17.0033 7.62892 16.9979 7.64532 16.9656C7.65626 16.9495 7.66173 16.928 7.67267 16.9118C7.63986 16.7827 7.60704 16.6483 7.56876 16.5192C7.53048 16.3847 7.51954 16.1372 7.35548 16.1372C7.14767 16.1372 6.93986 16.1372 6.73204 16.1372C6.66642 16.1372 6.60079 16.1265 6.55157 16.1857C6.49689 16.2502 6.48048 16.3578 6.45861 16.4438C6.43126 16.5837 6.39845 16.7182 6.37111 16.8634Z" fill="#222221"/>
<path d="M8.40547 20.4621C8.43282 20.4352 8.44376 20.3922 8.44376 20.3492C8.31251 19.7252 8.18126 19.0958 8.04454 18.4772C8.00626 18.4127 7.95704 18.375 7.88594 18.3428L6.18516 18.3428C6.14688 18.3589 6.1086 18.3804 6.08126 18.4127C6.06485 18.4342 6.04844 18.4557 6.03204 18.4772C5.97188 18.7247 5.91173 18.9721 5.84063 19.2196C5.74219 19.58 5.64923 19.9457 5.55626 20.3061C5.55626 20.3599 5.56719 20.4191 5.60001 20.446C5.62735 20.4675 5.66016 20.4729 5.69298 20.4783L8.38907 20.4783C8.39454 20.4675 8.40001 20.4621 8.40547 20.4621Z" fill="#222221"/>
<path d="M5.26094 22.6298L8.85391 22.6298C8.88672 22.5975 8.90859 22.5437 8.91406 22.4845C8.78281 21.9143 8.6625 21.3442 8.54219 20.7686C8.52031 20.7094 8.49297 20.6503 8.44375 20.6126C8.41641 20.5911 8.38359 20.5803 8.34531 20.575L5.6 20.575C5.55625 20.5965 5.5125 20.6287 5.48516 20.6664C5.47422 20.6772 5.46875 20.6933 5.46328 20.704C5.32656 21.2581 5.20078 21.8121 5.08047 22.3662C5.06953 22.5329 5.15703 22.6029 5.26094 22.6298Z" fill="#222221"/>
</g>
<defs>
<clipPath id="clip0_402_5505">
<rect width="32" height="14" fill="white" transform="translate(14) rotate(90)"/>
</clipPath>
</defs>
</svg>
