<svg width="14" height="30" viewBox="0 0 14 30" fill="none" xmlns="http://www.w3.org/2000/svg">
<g clip-path="url(#clip0_402_5504)">
<path d="M1.37362 30C1.22475 30 1.09619 29.8585 1.09619 29.6886L1.09619 29.1366C1.09619 28.9667 1.21799 28.8252 1.37362 28.8252L12.5926 28.8252C12.7414 28.8252 12.87 28.9667 12.87 29.1366L12.87 29.6886C12.87 29.8585 12.7482 30 12.5926 30L1.37362 30Z" fill="#222222"/>
<path d="M12.6873 29.6319L12.6873 13.2554L1.27211 13.2554L1.27211 29.6319L12.6873 29.6319Z" fill="#1C4FF5"/>
<path d="M12.6873 29.4833L12.6873 13.2554L12.0445 13.2554L12.0445 29.4833L12.6873 29.4833Z" fill="#222327"/>
<path d="M1.9014 29.4833L1.9014 13.2554L1.27211 13.2554L1.27211 29.4833L1.9014 29.4833Z" fill="#222327"/>
<path d="M12.6873 13.4606L12.6873 13.2483L12.0377 13.2483L12.0377 13.5243C12.2542 13.496 12.4708 13.4748 12.6873 13.4606Z" fill="#1C4FF5"/>
<path d="M1.9014 13.4677L1.9014 13.2483L1.27211 13.2483L1.27211 13.4323C1.48187 13.4465 1.69163 13.4606 1.9014 13.4677Z" fill="#1C4FF5"/>
<path d="M11.8212 29.3842L11.8212 13.2554L2.0232 13.2554L2.0232 29.3842L11.8212 29.3842Z" fill="#1C4FF5"/>
<path d="M11.5776 29.2074L11.5776 13.5527L2.32093 13.5527L2.32093 29.2074L11.5776 29.2074Z" fill="#1C4FF5"/>
<path d="M2.666 29.2074L2.666 13.5527L2.49007 13.5527L2.49007 29.2074L2.666 29.2074Z" fill="#243879"/>
<path d="M11.4152 29.2074L11.4152 13.5527L11.2392 13.5527L11.2392 29.2074L11.4152 29.2074Z" fill="#243879"/>
<path d="M3.28854 29.2074L3.28854 13.5527L3.11261 13.5527L3.11261 29.2074L3.28854 29.2074Z" fill="#243879"/>
<path d="M3.91104 29.2074L3.91104 13.5527L3.74188 13.5527L3.74188 29.2074L3.91104 29.2074Z" fill="#243879"/>
<path d="M4.54034 29.2074L4.54034 13.5527L4.36441 13.5527L4.36441 29.2074L4.54034 29.2074Z" fill="#243879"/>
<path d="M5.7854 29.2074L5.7854 13.5527L5.61624 13.5527L5.61624 29.2074L5.7854 29.2074Z" fill="#243879"/>
<path d="M5.16287 29.2074L5.16287 13.5527L4.99371 13.5527L4.99371 29.2074L5.16287 29.2074Z" fill="#243879"/>
<path d="M6.41467 29.2074L6.41467 13.5527L6.23874 13.5527L6.23874 29.2074L6.41467 29.2074Z" fill="#243879"/>
<path d="M7.0372 29.2074L7.0372 13.5527L6.86804 13.5527L6.86804 29.2074L7.0372 29.2074Z" fill="#243879"/>
<path d="M7.65973 29.2074L7.65973 13.5527L7.49057 13.5527L7.49056 29.2074L7.65973 29.2074Z" fill="#243879"/>
<path d="M8.289 29.2074L8.289 13.5527L8.11984 13.5527L8.11984 29.2074L8.289 29.2074Z" fill="#243879"/>
<path d="M8.91153 29.2074L8.91153 13.5527L8.74237 13.5527L8.74237 29.2074L8.91153 29.2074Z" fill="#243879"/>
<path d="M9.54083 29.2074L9.54083 13.5527L9.37167 13.5527L9.37167 29.2074L9.54083 29.2074Z" fill="#243879"/>
<path d="M10.1634 29.2074L10.1634 13.5527L9.9942 13.5527L9.9942 29.2074L10.1634 29.2074Z" fill="#243879"/>
<path d="M10.7859 29.2074L10.7859 13.5527L10.6167 13.5527L10.6167 29.2074L10.7859 29.2074Z" fill="#243879"/>
<path d="M11.2 15.0001L11.2 13.6365L2.80001 13.6365L2.80001 15.0001L11.2 15.0001Z" fill="black"/>
<path d="M12.4301 2.9724C12.3625 2.34961 12.2068 1.66313 11.8821 1.30927C11.1783 0.552017 8.32961 0.056617 6.9154 -2.41057e-07C6.9154 -2.41057e-07 6.9154 -2.41057e-07 6.90864 -2.41353e-07C6.90864 -2.41353e-07 6.90864 -2.41353e-07 6.90187 -2.41649e-07C5.48766 0.0566168 2.63894 0.552017 1.93522 1.31635C1.61042 1.6702 1.45479 2.34961 1.38713 2.97948L12.4301 2.97948L12.4301 2.9724Z" fill="#222222"/>
<path d="M12.4978 3.0432C12.4302 2.42041 12.2745 1.73393 11.9497 1.38007C11.246 0.622818 8.3973 0.127418 6.98309 0.0708005C6.98309 0.0708005 6.98309 0.0708005 6.97633 0.0708005C5.56212 0.127418 2.7134 0.622817 2.00968 1.38715C1.68488 1.74101 1.52925 2.42041 1.46158 3.05028L12.4978 3.05028L12.4978 3.0432Z" fill="#1C4FF5"/>
<path d="M12.4978 3.0432C12.4302 2.42041 12.2745 1.73393 11.9497 1.38007C11.246 0.622818 8.3973 0.127418 6.98309 0.0708005C6.98309 0.0708005 6.98309 0.0708005 6.97633 0.0708005C5.56212 0.127418 2.7134 0.622817 2.00968 1.38715C1.68488 1.74101 1.52925 2.42041 1.46158 3.05028L12.4978 3.05028L12.4978 3.0432Z" fill="#1C4FF5"/>
<path d="M12.5114 3.38988C12.4437 2.76709 12.2881 2.08061 11.9633 1.72675C11.2595 0.969497 8.41082 0.474097 6.99661 0.41748C6.99661 0.41748 6.99661 0.41748 6.98984 0.41748C6.98984 0.41748 6.98984 0.41748 6.98308 0.41748C5.56887 0.474097 2.72015 0.969497 2.01643 1.73383C1.69163 2.08769 1.536 2.76709 1.46834 3.39696L12.5114 3.39696L12.5114 3.38988Z" fill="black"/>
<path d="M12.6873 13.3829L12.7144 5.23709C12.7144 5.23709 12.8226 2.82379 12.0986 2.00992C11.3746 1.19605 8.43789 0.66526 6.98308 0.608642C6.98308 0.608642 6.98308 0.608642 6.97632 0.608642C6.97632 0.608642 6.97632 0.608642 6.96955 0.608642C5.51474 0.665259 2.57806 1.19604 1.85404 2.00992C1.13002 2.82379 1.23828 5.23709 1.23828 5.23709L1.26535 13.3333C2.1044 13.4253 2.95022 13.4466 3.78927 13.5527L10.1228 13.5527C10.9754 13.4607 11.8347 13.4466 12.6873 13.3829Z" fill="#1C4FF5"/>
<path d="M12.6196 13.39L12.6467 5.13094C12.6467 5.13094 12.7549 2.77425 12.0377 1.98161C11.3204 1.18189 8.41758 0.66526 6.98307 0.608642C6.98307 0.608642 6.98307 0.608642 6.9763 0.608642C6.9763 0.608642 6.9763 0.608642 6.96954 0.608642C5.53503 0.665259 2.63218 1.18897 1.91492 1.98161C1.19767 2.77425 1.30593 5.13094 1.30593 5.13094L1.333 13.3475C2.15175 13.4324 2.97727 13.4607 3.78926 13.5598L10.1227 13.5598C10.955 13.4607 11.7873 13.4466 12.6196 13.39Z" fill="#1C4FF5"/>
<path d="M12.6873 13.3829L12.7144 5.0814C12.7144 5.0814 12.8226 2.74594 12.0986 1.96038C11.3746 1.18189 8.43789 0.66526 6.98308 0.608642C6.98308 0.608642 6.98308 0.608642 6.97632 0.608642C6.97632 0.608642 6.97632 0.608642 6.96955 0.608642C5.51474 0.665259 2.57806 1.18189 1.85404 1.96745C1.13002 2.75302 1.23828 5.08847 1.23828 5.08847L1.26535 13.3404C2.1044 13.4324 2.95022 13.4537 3.78927 13.5598L10.1228 13.5598C10.9754 13.4607 11.8347 13.4466 12.6873 13.3829Z" fill="#1C4FF5"/>
<path d="M3.79605 13.5526C3.77575 12.0664 3.68102 10.283 3.34269 9.4762C2.72017 7.96877 1.86758 5.75362 1.86758 5.75362L1.94202 3.71541C1.94202 3.71541 2.06381 2.65384 2.51041 1.54272C2.22621 1.67719 2.00291 1.81873 1.86082 1.96735C1.1368 2.75292 1.24506 5.08837 1.24506 5.08837L1.27213 13.3403C2.11118 13.4252 2.957 13.4536 3.79605 13.5526Z" fill="#1C4FF5"/>
<path d="M12.6873 13.383L12.7144 5.08151C12.7144 5.08151 12.8226 2.74605 12.0986 1.96049C11.9294 1.77648 11.6452 1.61371 11.2934 1.46509C11.767 2.60451 11.8956 3.70854 11.8956 3.70854L11.97 5.74676C11.97 5.74676 11.1174 7.96898 10.4949 9.46933C10.1566 10.2974 10.0754 12.095 10.0754 13.5458L10.1363 13.5458C10.9754 13.4608 11.8347 13.4467 12.6873 13.383Z" fill="#1C4FF5"/>
<path d="M1.94877 3.63048C1.9826 3.36862 2.13146 2.46983 2.51039 1.53564C2.28033 1.6418 2.09086 1.75504 1.94877 1.87535L1.94877 3.63048Z" fill="#1C4FF5"/>
<path d="M1.9014 13.3971L1.9014 5.83871C1.8811 5.78209 1.86756 5.7467 1.86756 5.7467L1.9014 4.79837L1.9014 1.92505C1.88786 1.9392 1.87433 1.95336 1.8608 1.96751C1.13678 2.75307 1.24504 5.08853 1.24504 5.08853L1.27211 13.3405C1.48187 13.3617 1.69163 13.3759 1.9014 13.3971Z" fill="#1C4FF5"/>
<path d="M12.6873 13.3828L12.7144 5.08136C12.7144 5.08136 12.8226 2.74591 12.0986 1.96034C12.0174 1.86834 11.9091 1.78341 11.7738 1.70557C11.8076 2.27881 11.8482 2.85206 11.8821 3.42531C11.9836 5.03182 11.97 6.63833 12.0174 8.25192C12.0445 9.06579 12.0715 9.87966 12.0715 10.7006C12.0783 11.5145 12.058 12.3284 12.0445 13.1422C12.0445 13.2342 12.0445 13.3333 12.0377 13.4253C12.261 13.4112 12.4775 13.4041 12.6873 13.3828Z" fill="#1C4FF5"/>
<path d="M11.8009 2.92298C11.7738 2.5125 11.7467 2.09495 11.7264 1.6774C11.5979 1.60663 11.4558 1.53586 11.2934 1.46509C11.5911 2.17988 11.7467 2.87344 11.8279 3.29807C11.8144 3.17776 11.8076 3.05037 11.8009 2.92298Z" fill="#1C4FF5"/>
<path d="M10.1228 9.74527C10.1228 9.74527 7.61236 9.38434 3.70806 9.74527C3.70806 9.74527 3.53889 9.81605 3.40356 9.5825C3.26823 9.34895 2.17882 6.26332 2.17882 6.26332C2.17882 6.26332 1.82696 5.35745 2.17205 5.24421C2.45625 5.15221 6.32672 3.47493 11.8888 5.08852C11.8888 5.08852 12.1798 5.44237 11.9227 5.98731C11.8279 6.22794 10.637 9.41265 10.637 9.41265C10.637 9.41265 10.4949 9.77358 10.3122 9.75943L10.1228 9.74527Z" fill="#222222"/>
<path d="M3.55244 13.3474C3.5795 12.1655 3.5795 11.0048 3.47124 10.3467C3.25471 9.05154 2.0435 7.02748 1.9014 6.89302C1.7593 6.76563 1.79313 7.13364 1.79313 7.13364C1.79313 7.13364 1.7796 10.1485 1.7796 13.1421L3.55244 13.3474Z" fill="#222222"/>
<path d="M3.46448 13.0288C3.47802 12.0522 3.47125 11.026 3.38328 10.5023C3.18705 9.32038 2.09764 7.48033 1.96907 7.36002C1.84051 7.23971 1.87434 7.57941 1.87434 7.57941C1.87434 7.57941 1.86758 10.1413 1.86081 12.6537L3.46448 13.0288Z" fill="#222221"/>
<path d="M1.68488 12.4204L1.68488 11.2102C1.68488 11.2102 1.67134 11.0404 1.54954 11.097C1.43451 11.1536 1.44128 11.3022 1.44128 11.3942L1.44128 12.2789C1.44128 12.2789 1.44805 12.4558 1.59691 12.4629C1.59691 12.47 1.68488 12.47 1.68488 12.4204Z" fill="#222222"/>
<path d="M1.68488 12.3284L1.68488 11.2881C1.68488 11.2881 1.67134 11.1465 1.56984 11.1961C1.46835 11.2456 1.47511 11.373 1.47511 11.4508L1.47511 12.2081C1.47511 12.2081 1.48188 12.3567 1.61044 12.3638C1.61044 12.3709 1.68488 12.3709 1.68488 12.3284Z" fill="#1C4FF5"/>
<path d="M12.2136 13.1422C12.2136 10.1557 12.2001 7.13374 12.2001 7.13374C12.2001 7.13374 12.2339 6.75865 12.0918 6.89312C11.9497 7.02051 10.7385 9.05165 10.522 10.3468C10.4137 11.0049 10.4137 12.1727 10.4408 13.3545L12.2136 13.1422Z" fill="#222222"/>
<path d="M10.5287 13.0291C10.5152 12.0524 10.522 11.0262 10.6099 10.5025C10.8062 9.32063 11.8956 7.48057 12.0242 7.36026C12.1527 7.23995 12.1189 7.57965 12.1189 7.57965C12.1189 7.57965 12.1256 10.1416 12.1324 12.654L10.5287 13.0291Z" fill="#222221"/>
<path d="M10.0889 9.75223C10.0889 9.75223 7.62589 9.41253 3.79602 9.75223C3.79602 9.75223 3.62686 9.81593 3.49829 9.60361C3.36973 9.38422 2.33444 6.4189 2.33444 6.4189C2.33444 6.4189 2.04348 5.71119 2.29384 5.56257C2.54421 5.41395 6.37408 3.91359 11.8347 5.42102C11.8347 5.42102 12.1189 5.75365 11.8685 6.25613C11.7603 6.46844 10.5964 9.44084 10.5964 9.44084C10.5964 9.44084 10.4543 9.77347 10.2716 9.76639L10.0889 9.75223Z" fill="#222221"/>
<path d="M10.0889 9.75223C10.0889 9.75223 7.62589 9.41253 3.79602 9.75223C3.79602 9.75223 3.62686 9.81593 3.49829 9.60361C3.36973 9.38422 2.33444 6.4189 2.33444 6.4189C2.33444 6.4189 2.04348 5.71119 2.29384 5.56257C2.54421 5.41395 6.37408 3.91359 11.8347 5.42102C11.8347 5.42102 12.1189 5.75365 11.8685 6.25613C11.7603 6.46844 10.5964 9.44084 10.5964 9.44084C10.5964 9.44084 10.4543 9.77347 10.2716 9.76639L10.0889 9.75223Z" fill="#222221"/>
<path d="M10.5287 13.0291C10.5152 12.0524 10.522 11.0262 10.6099 10.5025C10.8062 9.32063 11.8956 7.48057 12.0242 7.36026C12.1527 7.23995 12.1189 7.57965 12.1189 7.57965C12.1189 7.57965 12.1256 10.1416 12.1324 12.654L10.5287 13.0291Z" fill="#222221"/>
<path d="M12.3084 12.4204L12.3084 11.2102C12.3084 11.2102 12.3219 11.0404 12.4437 11.097C12.5587 11.1536 12.552 11.3022 12.552 11.3942L12.552 12.2789C12.552 12.2789 12.5452 12.4558 12.3963 12.4629C12.3896 12.47 12.3084 12.47 12.3084 12.4204Z" fill="#222222"/>
<path d="M12.3084 12.3284L12.3084 11.2881C12.3084 11.2881 12.3219 11.1465 12.4234 11.1961C12.5249 11.2456 12.5181 11.373 12.5181 11.4508L12.5181 12.2081C12.5181 12.2081 12.5114 12.3567 12.3828 12.3638C12.3828 12.3709 12.3084 12.3709 12.3084 12.3284Z" fill="#1C4FF5"/>
<path d="M1.79314 7.03466L2.09764 6.89312C2.09764 6.89312 2.2668 6.71619 2.09764 6.5888C1.98937 6.51095 1.55631 6.5888 1.55631 6.5888L1.79314 7.03466Z" fill="black"/>
<path d="M1.69165 6.53212C1.69165 6.53212 1.79991 6.48258 1.86081 6.77274C1.92171 7.06291 1.95554 7.23984 1.86081 7.36722C1.76608 7.49461 0.257136 7.87678 0.0744394 7.81308C-0.108258 7.74939 0.060906 7.30353 0.4263 6.94967C0.791694 6.59582 1.43452 6.49674 1.69165 6.53212Z" fill="#222222"/>
<path d="M8.91224e-06 7.64328C-0.00675765 7.72821 0.0135414 7.78483 0.0744403 7.80606C0.257137 7.86975 1.77285 7.48759 1.86081 7.3602C1.92848 7.2682 1.92848 7.15496 1.90141 6.99219C1.25859 7.16204 0.636065 7.41682 8.91224e-06 7.64328Z" fill="#222222"/>
<path d="M3.77574 1.31632C3.77574 1.31632 2.69309 1.7551 2.09763 2.7459C2.09763 2.7459 1.77284 3.43946 1.61044 3.00775C1.44804 2.57605 1.92847 1.79756 2.2668 1.58525C2.84872 1.22432 3.77574 1.104 3.77574 1.104C3.77574 1.104 4.1682 1.12524 3.77574 1.31632Z" fill="#222221"/>
<path d="M10.1566 1.31632C10.1566 1.31632 11.2392 1.7551 11.8347 2.7459C11.8347 2.7459 12.1595 3.43946 12.3219 3.00775C12.4843 2.57605 12.0039 1.79756 11.6655 1.58525C11.0904 1.22432 10.1566 1.104 10.1566 1.104C10.1566 1.104 9.76413 1.12524 10.1566 1.31632Z" fill="#222221"/>
<path d="M11.5573 1.22423C11.5911 1.16762 11.6926 1.16762 11.7941 1.23131C11.8888 1.29501 11.943 1.38701 11.9091 1.44363C11.8753 1.50024 11.7738 1.50024 11.6723 1.43655C11.5708 1.37993 11.5234 1.28085 11.5573 1.22423Z" fill="#1C4FF5"/>
<path d="M2.49686 1.22423C2.46302 1.16762 2.36153 1.16762 2.26003 1.23131C2.1653 1.29501 2.11116 1.38701 2.145 1.44363C2.17883 1.50024 2.28033 1.50024 2.38183 1.43655C2.47656 1.37993 2.52392 1.28085 2.49686 1.22423Z" fill="#1C4FF5"/>
<path opacity="0.5" d="M9.89946 13.5527C9.89946 12.4204 9.93329 11.0333 10.0889 10.1769C10.0889 10.1769 10.1498 9.87968 9.94006 9.83722C9.73029 9.80184 7.82212 9.64614 6.91541 9.69568C6.00869 9.64614 4.10052 9.80184 3.89076 9.83722C3.68099 9.87261 3.74189 10.1769 3.74189 10.1769C3.89752 11.0333 3.93136 12.4204 3.93136 13.5527L9.89946 13.5527Z" fill="#1C4FF5"/>
<path d="M12.2069 7.03466L11.9024 6.89312C11.9024 6.89312 11.7332 6.71619 11.9024 6.5888C12.0106 6.51095 12.4437 6.5888 12.4437 6.5888L12.2069 7.03466Z" fill="black"/>
<path d="M12.3016 6.53212C12.3016 6.53212 12.1933 6.48258 12.1324 6.77274C12.0715 7.06291 12.0377 7.23984 12.1324 7.36722C12.2272 7.49461 13.7361 7.87678 13.9188 7.81308C14.1015 7.74939 13.9323 7.30353 13.567 6.94967C13.2083 6.59582 12.5655 6.49674 12.3016 6.53212Z" fill="#222222"/>
<path d="M14 7.68576C13.3639 7.46637 12.7279 7.22574 12.0918 7.02051C12.0715 7.16913 12.0783 7.28236 12.1392 7.36729C12.2339 7.49468 13.7429 7.87684 13.9256 7.81315C13.9729 7.79192 14 7.74945 14 7.68576Z" fill="#222222"/>
<path d="M12.3354 28.988L12.4166 29.4551C12.4166 29.4551 12.4234 29.4834 12.4369 29.4834L12.552 29.4834C12.552 29.4834 12.5655 29.4905 12.5655 29.448C12.5655 29.4055 12.4572 29.0375 12.4572 29.0375C12.4572 29.0375 12.4437 28.9951 12.4234 28.9738C12.4031 28.9526 12.349 28.9314 12.349 28.9314C12.349 28.9314 12.3219 28.9101 12.3354 28.988Z" fill="#1C4FF5"/>
<path d="M12.3625 29.1084L12.4234 29.4622C12.4234 29.4622 12.4234 29.4835 12.4369 29.4835L12.5249 29.4835C12.5249 29.4835 12.5384 29.4905 12.5384 29.4551C12.5384 29.4198 12.4572 29.1367 12.4572 29.1367C12.4572 29.1367 12.4505 29.1013 12.4302 29.0871C12.4099 29.073 12.376 29.0517 12.376 29.0517C12.376 29.0517 12.349 29.0447 12.3625 29.1084Z" fill="#1C4FF5"/>
<path opacity="0.3" d="M12.4302 29.2711C12.4505 29.3419 12.464 29.4126 12.4843 29.4763L12.4369 29.4763C12.4166 29.4763 12.4166 29.448 12.4166 29.448L12.3354 28.9809C12.3287 28.9314 12.3354 28.9172 12.3422 28.9172C12.3693 29.0446 12.4031 29.1579 12.4302 29.2711Z" fill="white"/>
<path d="M12.0648 28.6415L12.0648 29.42C12.0648 29.42 12.0715 29.4766 12.0986 29.4766C12.1257 29.4837 12.4031 29.4766 12.4031 29.4766C12.4031 29.4766 12.4234 29.4837 12.4301 29.4342C12.4301 29.3846 12.1933 28.4929 12.1933 28.4929C12.1933 28.4929 12.0851 28.132 12.0648 28.6415Z" fill="#1C4FF5"/>
<path d="M12.0647 28.7403L12.0647 29.3914C12.0647 29.3914 12.0715 29.4339 12.0918 29.4409C12.1121 29.448 12.3489 29.4409 12.3489 29.4409C12.3489 29.4409 12.3692 29.448 12.3692 29.4056C12.3692 29.3631 12.173 28.62 12.173 28.62C12.173 28.62 12.0783 28.3157 12.0647 28.7403Z" fill="#1C4FF5"/>
<path opacity="0.3" d="M12.1189 29.4763C12.1121 29.4763 12.1054 29.4763 12.0986 29.4763C12.0715 29.4693 12.0648 29.4127 12.0648 29.4127L12.0648 28.6342C12.0715 28.4219 12.0986 28.3652 12.1189 28.3652L12.1189 29.4763Z" fill="white"/>
<path d="M1.64428 28.988L1.56308 29.4551C1.56308 29.4551 1.55632 29.4834 1.54278 29.4834L1.42775 29.4834C1.42775 29.4834 1.41422 29.4905 1.40745 29.448C1.40745 29.4055 1.51572 29.0375 1.51572 29.0375C1.51572 29.0375 1.52925 28.9951 1.54955 28.9738C1.56985 28.9526 1.62398 28.9314 1.62398 28.9314C1.62398 28.9314 1.65781 28.9101 1.64428 28.988Z" fill="#1C4FF5"/>
<path d="M1.61045 29.1084L1.54955 29.4622C1.54955 29.4622 1.54955 29.4835 1.53602 29.4835L1.44806 29.4835C1.44806 29.4835 1.43452 29.4905 1.43452 29.4551C1.43452 29.4198 1.51572 29.1367 1.51572 29.1367C1.51572 29.1367 1.52249 29.1013 1.54279 29.0871C1.56309 29.073 1.59692 29.0517 1.59692 29.0517C1.59692 29.0517 1.62399 29.0447 1.61045 29.1084Z" fill="#1C4FF5"/>
<path opacity="0.3" d="M1.54278 29.2711C1.52249 29.3419 1.50895 29.4126 1.48865 29.4763L1.53602 29.4763C1.55632 29.4763 1.55632 29.448 1.55632 29.448L1.63752 28.9809C1.64428 28.9314 1.63752 28.9172 1.63075 28.9172C1.60368 29.0446 1.57662 29.1579 1.54278 29.2711Z" fill="white"/>
<path d="M1.90817 28.6415L1.90817 29.42C1.90817 29.42 1.90141 29.4766 1.87434 29.4766C1.84727 29.4837 1.56984 29.4766 1.56984 29.4766C1.56984 29.4766 1.54954 29.4837 1.54278 29.4342C1.54278 29.3846 1.77961 28.4929 1.77961 28.4929C1.77961 28.4929 1.89464 28.132 1.90817 28.6415Z" fill="#1C4FF5"/>
<path d="M1.90817 28.7403L1.90817 29.3914C1.90817 29.3914 1.90141 29.4339 1.87434 29.4409C1.85404 29.448 1.61721 29.4409 1.61721 29.4409C1.61721 29.4409 1.59691 29.448 1.59691 29.4056C1.59691 29.3631 1.79314 28.62 1.79314 28.62C1.79314 28.62 1.89464 28.3157 1.90817 28.7403Z" fill="#1C4FF5"/>
<path opacity="0.3" d="M1.85404 29.4763C1.86081 29.4763 1.86757 29.4763 1.87434 29.4763C1.90141 29.4693 1.90817 29.4127 1.90817 29.4127L1.90817 28.6342C1.90141 28.4219 1.87434 28.3652 1.85404 28.3652L1.85404 29.4763Z" fill="white"/>
<path opacity="0.5" d="M9.96035 9.91501L10.1431 9.92209C10.3257 9.92917 10.4678 9.59654 10.4678 9.59654C10.4678 9.59654 10.928 8.42173 11.2934 7.49463C11.0565 7.60786 10.8197 7.70694 10.5693 7.79187C9.87239 8.03957 9.14837 8.19527 8.41758 8.26604C7.82889 8.32265 7.23343 8.34389 6.63798 8.35096C5.3388 8.36512 4.02609 8.30142 2.75398 8.01126C2.73368 8.00418 2.71338 8.00418 2.69984 7.99711C2.98404 8.78975 3.2953 9.64608 3.36297 9.75931C3.49153 9.9787 3.66069 9.90793 3.66069 9.90793C7.49056 9.57531 9.96035 9.91501 9.96035 9.91501Z" fill="#222221"/>
<path opacity="0.5" d="M11.2325 12.2434C11.2528 11.5003 11.2866 10.7572 11.3475 10.0211C11.4017 9.35589 11.4829 8.68356 11.6114 8.02539C11.2393 8.69772 10.7385 9.73098 10.6167 10.4953C10.5288 11.0261 10.522 12.0523 10.5355 13.0219L11.2122 12.8662C11.219 12.6609 11.2257 12.4557 11.2325 12.2434Z" fill="#00384B"/>
<path opacity="0.5" d="M2.39535 8.23082C2.48331 8.7333 2.58481 9.23578 2.65924 9.74533C2.78104 10.545 2.86224 11.3518 2.89607 12.1586C2.9096 12.4063 2.91637 12.654 2.91637 12.9017L3.47123 13.0362C3.48476 12.0596 3.47799 11.0334 3.39003 10.5097C3.2547 9.70287 2.69984 8.5776 2.32091 7.91235C2.34798 8.01143 2.37505 8.11759 2.39535 8.23082Z" fill="#00384B"/>
<path opacity="0.8" d="M11.7738 4.86902C11.7738 4.86902 6.69212 3.38282 2.13146 5.1238C2.13146 5.11672 6.07637 2.82373 11.7738 4.86902Z" fill="#1C4FF5"/>
</g>
<defs>
<clipPath id="clip0_402_5504">
<rect width="30" height="14" fill="white" transform="translate(14) rotate(90)"/>
</clipPath>
</defs>
</svg>
