<svg width="16" height="30" viewBox="0 0 16 30" fill="none" xmlns="http://www.w3.org/2000/svg">
<path d="M4.02577 16.5057L11.9743 16.5057C12.3974 16.5057 12.7403 16.8261 12.7403 17.2215L12.7403 17.5906C12.7403 17.986 12.3974 18.3064 11.9743 18.3064L4.02577 18.3064C3.60267 18.3064 3.25978 17.986 3.25978 17.5906L3.25978 17.2215C3.25978 16.8261 3.60267 16.5057 4.02577 16.5057Z" fill="#191F23"/>
<path d="M12.594 23.447L14.1566 23.447C14.1566 23.6408 13.9885 23.7979 13.7811 23.7979L12.9694 23.7979C12.7621 23.7979 12.594 23.6408 12.594 23.447Z" fill="#191F23"/>
<path d="M12.594 23.447L14.1566 23.447L14.1566 23.0962L12.594 23.0962L12.594 23.447Z" fill="#222B32"/>
<path d="M12.594 23.0957L14.1566 23.0957L14.1566 22.7449L12.594 22.7449L12.594 23.0957Z" fill="#191F23"/>
<path d="M12.594 22.7454L14.1566 22.7454L14.1566 22.3945L12.594 22.3945L12.594 22.7454Z" fill="#222B32"/>
<path d="M12.594 22.394L14.1566 22.394L14.1566 22.0432L12.594 22.0432L12.594 22.394Z" fill="#191F23"/>
<path d="M12.594 22.0439L14.1566 22.0439L14.1566 21.6931L12.594 21.6931L12.594 22.0439Z" fill="#222B32"/>
<path d="M12.594 21.6926L14.1566 21.6926L14.1566 21.3418L12.594 21.3418L12.594 21.6926Z" fill="#191F23"/>
<path d="M12.594 21.3418L14.1566 21.3418L14.1566 20.991L12.594 20.991L12.594 21.3418Z" fill="#222B32"/>
<path d="M12.594 20.9907L14.1566 20.9907L14.1566 20.6399L12.594 20.6399L12.594 20.9907Z" fill="#191F23"/>
<path d="M12.594 20.6399L14.1566 20.6399L14.1566 20.289L12.594 20.289L12.594 20.6399Z" fill="#222B32"/>
<path d="M12.9694 19.938L13.7811 19.938C13.9885 19.938 14.1566 20.095 14.1566 20.2888L12.594 20.2888C12.594 20.095 12.7621 19.938 12.9694 19.938Z" fill="#191F23"/>
<path d="M10.7989 23.447L12.3617 23.447C12.3617 23.6408 12.1936 23.7979 11.9862 23.7979L11.1745 23.7979C10.967 23.7979 10.7989 23.6408 10.7989 23.447Z" fill="#191F23"/>
<path d="M10.7987 23.447L12.3615 23.447L12.3615 23.0962L10.7987 23.0962L10.7987 23.447Z" fill="#222B32"/>
<path d="M10.7987 23.0957L12.3615 23.0957L12.3615 22.7449L10.7987 22.7449L10.7987 23.0957Z" fill="#191F23"/>
<path d="M10.7987 22.7454L12.3615 22.7454L12.3615 22.3945L10.7987 22.3945L10.7987 22.7454Z" fill="#222B32"/>
<path d="M10.7987 22.394L12.3615 22.394L12.3615 22.0432L10.7987 22.0432L10.7987 22.394Z" fill="#191F23"/>
<path d="M10.7987 22.0439L12.3615 22.0439L12.3615 21.6931L10.7987 21.6931L10.7987 22.0439Z" fill="#222B32"/>
<path d="M10.7987 21.6926L12.3615 21.6926L12.3615 21.3418L10.7987 21.3418L10.7987 21.6926Z" fill="#191F23"/>
<path d="M10.7987 21.3418L12.3615 21.3418L12.3615 20.991L10.7987 20.991L10.7987 21.3418Z" fill="#222B32"/>
<path d="M10.7987 20.9907L12.3615 20.9907L12.3615 20.6399L10.7987 20.6399L10.7987 20.9907Z" fill="#191F23"/>
<path d="M10.7987 20.6399L12.3615 20.6399L12.3615 20.289L10.7987 20.289L10.7987 20.6399Z" fill="#222B32"/>
<path d="M11.1743 19.938L11.986 19.938C12.1934 19.938 12.3615 20.095 12.3615 20.2888L10.7987 20.2888C10.7989 20.095 10.967 19.938 11.1743 19.938Z" fill="#191F23"/>
<path d="M12.3615 22.8901L12.608 22.8901L12.608 20.846L12.3615 20.846L12.3615 22.8901Z" fill="#525D65"/>
<path d="M3.63852 23.447L5.20126 23.447C5.20126 23.6408 5.03318 23.7979 4.82582 23.7979L4.0141 23.7979C3.80661 23.7979 3.63852 23.6408 3.63852 23.447Z" fill="#191F23"/>
<path d="M3.63854 23.447L5.20114 23.447L5.20114 23.0962L3.63854 23.0962L3.63854 23.447Z" fill="#222B32"/>
<path d="M3.63854 23.0957L5.20114 23.0957L5.20114 22.7449L3.63854 22.7449L3.63854 23.0957Z" fill="#191F23"/>
<path d="M3.63854 22.7454L5.20114 22.7454L5.20114 22.3945L3.63854 22.3945L3.63854 22.7454Z" fill="#222B32"/>
<path d="M3.63854 22.394L5.20114 22.394L5.20114 22.0432L3.63854 22.0432L3.63854 22.394Z" fill="#191F23"/>
<path d="M3.63854 22.0439L5.20114 22.0439L5.20114 21.6931L3.63854 21.6931L3.63854 22.0439Z" fill="#222B32"/>
<path d="M3.63854 21.6926L5.20114 21.6926L5.20114 21.3418L3.63854 21.3418L3.63854 21.6926Z" fill="#191F23"/>
<path d="M3.63854 21.3418L5.20114 21.3418L5.20114 20.991L3.63854 20.991L3.63854 21.3418Z" fill="#222B32"/>
<path d="M3.63854 20.9907L5.20114 20.9907L5.20114 20.6399L3.63854 20.6399L3.63854 20.9907Z" fill="#191F23"/>
<path d="M3.63854 20.6399L5.20114 20.6399L5.20114 20.289L3.63854 20.289L3.63854 20.6399Z" fill="#222B32"/>
<path d="M4.01398 19.938L4.8257 19.938C5.03306 19.938 5.20114 20.095 5.20114 20.2888L3.6384 20.2888C3.63854 20.095 3.80662 19.938 4.01398 19.938Z" fill="#191F23"/>
<path d="M1.84345 23.447L3.40619 23.447C3.40619 23.6408 3.2381 23.7979 3.03075 23.7979L2.21903 23.7979C2.01153 23.7979 1.84345 23.6408 1.84345 23.447Z" fill="#191F23"/>
<path d="M1.84358 23.447L3.40619 23.447L3.40619 23.0962L1.84358 23.0962L1.84358 23.447Z" fill="#222B32"/>
<path d="M1.84358 23.0957L3.40619 23.0957L3.40619 22.7449L1.84358 22.7449L1.84358 23.0957Z" fill="#191F23"/>
<path d="M1.84358 22.7454L3.40619 22.7454L3.40619 22.3945L1.84358 22.3945L1.84358 22.7454Z" fill="#222B32"/>
<path d="M1.84358 22.394L3.40619 22.394L3.40619 22.0432L1.84358 22.0432L1.84358 22.394Z" fill="#191F23"/>
<path d="M1.84358 22.0439L3.40619 22.0439L3.40619 21.6931L1.84358 21.6931L1.84358 22.0439Z" fill="#222B32"/>
<path d="M1.84358 21.6926L3.40619 21.6926L3.40619 21.3418L1.84358 21.3418L1.84358 21.6926Z" fill="#191F23"/>
<path d="M1.84358 21.3418L3.40619 21.3418L3.40619 20.991L1.84358 20.991L1.84358 21.3418Z" fill="#222B32"/>
<path d="M1.84358 20.9907L3.40619 20.9907L3.40619 20.6399L1.84358 20.6399L1.84358 20.9907Z" fill="#191F23"/>
<path d="M1.84358 20.6399L3.40619 20.6399L3.40619 20.289L1.84358 20.289L1.84358 20.6399Z" fill="#222B32"/>
<path d="M2.21903 19.938L3.03075 19.938C3.2381 19.938 3.40619 20.095 3.40619 20.2888L1.84345 20.2888C1.84345 20.095 2.01153 19.938 2.21903 19.938Z" fill="#191F23"/>
<path d="M3.40618 22.8901L3.65268 22.8901L3.65268 20.846L3.40618 20.846L3.40618 22.8901Z" fill="#525D65"/>
<path d="M12.594 28.5735L14.1566 28.5735C14.1566 28.7672 13.9885 28.9243 13.7811 28.9243L12.9694 28.9243C12.7621 28.9243 12.594 28.7672 12.594 28.5735Z" fill="#191F23"/>
<path d="M12.594 28.5732L14.1566 28.5732L14.1566 28.2224L12.594 28.2224L12.594 28.5732Z" fill="#222B32"/>
<path d="M12.594 28.2224L14.1566 28.2224L14.1566 27.8716L12.594 27.8716L12.594 28.2224Z" fill="#191F23"/>
<path d="M12.594 27.8713L14.1566 27.8713L14.1566 27.5205L12.594 27.5205L12.594 27.8713Z" fill="#222B32"/>
<path d="M12.594 27.5205L14.1566 27.5205L14.1566 27.1697L12.594 27.1697L12.594 27.5205Z" fill="#191F23"/>
<path d="M12.594 27.1699L14.1566 27.1699L14.1566 26.8191L12.594 26.8191L12.594 27.1699Z" fill="#222B32"/>
<path d="M12.594 26.8191L14.1566 26.8191L14.1566 26.4682L12.594 26.4682L12.594 26.8191Z" fill="#191F23"/>
<path d="M12.594 26.468L14.1566 26.468L14.1566 26.1172L12.594 26.1172L12.594 26.468Z" fill="#222B32"/>
<path d="M12.594 26.1169L14.1566 26.1169L14.1566 25.7661L12.594 25.7661L12.594 26.1169Z" fill="#191F23"/>
<path d="M12.594 25.7661L14.1566 25.7661L14.1566 25.4153L12.594 25.4153L12.594 25.7661Z" fill="#222B32"/>
<path d="M12.9694 25.0642L13.7811 25.0642C13.9885 25.0642 14.1566 25.2213 14.1566 25.415L12.594 25.415C12.594 25.2214 12.7621 25.0642 12.9694 25.0642Z" fill="#191F23"/>
<path d="M10.7989 28.5735L12.3617 28.5735C12.3617 28.7672 12.1936 28.9243 11.9862 28.9243L11.1745 28.9243C10.967 28.9243 10.7989 28.7672 10.7989 28.5735Z" fill="#191F23"/>
<path d="M10.7987 28.5732L12.3615 28.5732L12.3615 28.2224L10.7987 28.2224L10.7987 28.5732Z" fill="#222B32"/>
<path d="M10.7987 28.2224L12.3615 28.2224L12.3615 27.8716L10.7987 27.8716L10.7987 28.2224Z" fill="#191F23"/>
<path d="M10.7987 27.8713L12.3615 27.8713L12.3615 27.5205L10.7987 27.5205L10.7987 27.8713Z" fill="#222B32"/>
<path d="M10.7987 27.5205L12.3615 27.5205L12.3615 27.1697L10.7987 27.1697L10.7987 27.5205Z" fill="#191F23"/>
<path d="M10.7987 27.1699L12.3615 27.1699L12.3615 26.8191L10.7987 26.8191L10.7987 27.1699Z" fill="#222B32"/>
<path d="M10.7987 26.8191L12.3615 26.8191L12.3615 26.4682L10.7987 26.4682L10.7987 26.8191Z" fill="#191F23"/>
<path d="M10.7987 26.468L12.3615 26.468L12.3615 26.1172L10.7987 26.1172L10.7987 26.468Z" fill="#222B32"/>
<path d="M10.7987 26.1169L12.3615 26.1169L12.3615 25.7661L10.7987 25.7661L10.7987 26.1169Z" fill="#191F23"/>
<path d="M10.7987 25.7661L12.3615 25.7661L12.3615 25.4153L10.7987 25.4153L10.7987 25.7661Z" fill="#222B32"/>
<path d="M11.1743 25.0642L11.986 25.0642C12.1934 25.0642 12.3615 25.2213 12.3615 25.415L10.7987 25.415C10.7989 25.2214 10.967 25.0642 11.1743 25.0642Z" fill="#191F23"/>
<path d="M12.3615 28.0164L12.608 28.0164L12.608 25.9722L12.3615 25.9722L12.3615 28.0164Z" fill="#525D65"/>
<path d="M3.63852 28.5735L5.20126 28.5735C5.20126 28.7672 5.03318 28.9243 4.82582 28.9243L4.0141 28.9243C3.80661 28.9243 3.63852 28.7672 3.63852 28.5735Z" fill="#191F23"/>
<path d="M3.63854 28.5732L5.20114 28.5732L5.20114 28.2224L3.63854 28.2224L3.63854 28.5732Z" fill="#222B32"/>
<path d="M3.63854 28.2224L5.20114 28.2224L5.20114 27.8716L3.63854 27.8716L3.63854 28.2224Z" fill="#191F23"/>
<path d="M3.63854 27.8713L5.20114 27.8713L5.20114 27.5205L3.63854 27.5205L3.63854 27.8713Z" fill="#222B32"/>
<path d="M3.63854 27.5205L5.20114 27.5205L5.20114 27.1697L3.63854 27.1697L3.63854 27.5205Z" fill="#191F23"/>
<path d="M3.63854 27.1699L5.20114 27.1699L5.20114 26.8191L3.63854 26.8191L3.63854 27.1699Z" fill="#222B32"/>
<path d="M3.63854 26.8191L5.20114 26.8191L5.20114 26.4682L3.63854 26.4682L3.63854 26.8191Z" fill="#191F23"/>
<path d="M3.63854 26.468L5.20114 26.468L5.20114 26.1172L3.63854 26.1172L3.63854 26.468Z" fill="#222B32"/>
<path d="M3.63854 26.1169L5.20114 26.1169L5.20114 25.7661L3.63854 25.7661L3.63854 26.1169Z" fill="#191F23"/>
<path d="M3.63854 25.7661L5.20114 25.7661L5.20114 25.4153L3.63854 25.4153L3.63854 25.7661Z" fill="#222B32"/>
<path d="M4.01398 25.0642L4.8257 25.0642C5.03306 25.0642 5.20114 25.2213 5.20114 25.415L3.6384 25.415C3.63854 25.2214 3.80662 25.0642 4.01398 25.0642Z" fill="#191F23"/>
<path d="M1.84345 28.5735L3.40619 28.5735C3.40619 28.7672 3.2381 28.9243 3.03075 28.9243L2.21903 28.9243C2.01153 28.9243 1.84345 28.7672 1.84345 28.5735Z" fill="#191F23"/>
<path d="M1.84358 28.5732L3.40619 28.5732L3.40619 28.2224L1.84358 28.2224L1.84358 28.5732Z" fill="#222B32"/>
<path d="M1.84358 28.2224L3.40619 28.2224L3.40619 27.8716L1.84358 27.8716L1.84358 28.2224Z" fill="#191F23"/>
<path d="M1.84358 27.8713L3.40619 27.8713L3.40619 27.5205L1.84358 27.5205L1.84358 27.8713Z" fill="#222B32"/>
<path d="M1.84358 27.5205L3.40619 27.5205L3.40619 27.1697L1.84358 27.1697L1.84358 27.5205Z" fill="#191F23"/>
<path d="M1.84358 27.1699L3.40619 27.1699L3.40619 26.8191L1.84358 26.8191L1.84358 27.1699Z" fill="#222B32"/>
<path d="M1.84358 26.8191L3.40619 26.8191L3.40619 26.4682L1.84358 26.4682L1.84358 26.8191Z" fill="#191F23"/>
<path d="M1.84358 26.468L3.40619 26.468L3.40619 26.1172L1.84358 26.1172L1.84358 26.468Z" fill="#222B32"/>
<path d="M1.84358 26.1169L3.40619 26.1169L3.40619 25.7661L1.84358 25.7661L1.84358 26.1169Z" fill="#191F23"/>
<path d="M1.84358 25.7661L3.40619 25.7661L3.40619 25.4153L1.84358 25.4153L1.84358 25.7661Z" fill="#222B32"/>
<path d="M2.21903 25.0642L3.03075 25.0642C3.2381 25.0642 3.40619 25.2213 3.40619 25.415L1.84345 25.415C1.84345 25.2214 2.01153 25.0642 2.21903 25.0642Z" fill="#191F23"/>
<path d="M3.40618 28.0164L3.65268 28.0164L3.65268 25.9722L3.40618 25.9722L3.40618 28.0164Z" fill="#525D65"/>
<path d="M6.689 30L9.31092 30C9.56785 30 9.77603 29.8053 9.77603 29.5654L9.77603 29.3527L6.22374 29.3527L6.22374 29.5654C6.22388 29.8053 6.43206 30 6.689 30Z" fill="#191F23"/>
<path d="M5.31003 29.541L10.6901 29.541C10.9441 29.541 11.15 29.3487 11.15 29.1112L11.15 17.2024L4.85014 17.2024L4.85014 29.1112C4.85014 29.3487 5.05598 29.541 5.31003 29.541Z" fill="#3B464E"/>
<path d="M5.5899 29.541L10.4101 29.541L10.4101 17.2024L5.5899 17.2024L5.5899 29.541Z" fill="#222B32"/>
<path d="M7.47912 25.4776C6.77963 25.7465 6.44583 26.4944 6.73355 27.148C7.02127 27.8017 7.82157 28.1136 8.52106 27.8447C9.22055 27.5759 9.55435 26.828 9.26663 26.1743C8.97891 25.5207 8.17861 25.2088 7.47912 25.4776Z" fill="#637079"/>
<path d="M6.98339 26.5052C6.89205 27.0298 7.27306 27.5242 7.83441 27.6096C8.39575 27.6949 8.92486 27.3389 9.0162 26.8143C9.10753 26.2897 8.72652 25.7953 8.16518 25.71C7.60383 25.6246 7.07473 25.9806 6.98339 26.5052Z" fill="#7C8B96"/>
<path d="M10.4133 29.8445L10.4422 29.8445C10.6217 29.8445 10.7672 29.7086 10.7672 29.5409L10.0884 29.5409C10.0884 29.7086 10.2338 29.8445 10.4133 29.8445Z" fill="#1746E2"/>
<path d="M5.55777 29.8445L5.58674 29.8445C5.76623 29.8445 5.91165 29.7086 5.91165 29.5409L5.23286 29.5409C5.23286 29.7086 5.37829 29.8445 5.55777 29.8445Z" fill="#1746E2"/>
<path d="M9.61502 18.182C9.75055 18.182 9.86041 18.2847 9.86041 18.4114L9.86041 21.465C9.86041 21.5917 9.75055 21.6943 9.61502 21.6943C9.47948 21.6943 9.36962 21.5917 9.36962 21.465L9.36962 18.4114C9.36962 18.2848 9.47948 18.182 9.61502 18.182Z" fill="#191F23"/>
<path d="M6.385 18.182C6.52054 18.182 6.6304 18.2847 6.6304 18.4114L6.6304 21.465C6.6304 21.5917 6.52054 21.6943 6.385 21.6943C6.24947 21.6943 6.13961 21.5917 6.13961 21.465L6.13961 18.4114C6.13961 18.2848 6.24947 18.182 6.385 18.182Z" fill="#191F23"/>
<path d="M13.2484 2.47363L2.75183 2.47363C2.18317 2.47363 1.83959 1.88769 2.14307 1.43829C2.64114 0.700672 3.52112 0.210849 4.52303 0.210849L4.56052 0.210849L4.56052 1.72036L11.4391 1.72036L11.4391 0.210849L11.4765 0.210849C12.479 0.210849 13.3591 0.700673 13.8573 1.43829C14.1607 1.88769 13.8171 2.47363 13.2484 2.47363Z" fill="#1746E2"/>
<path d="M12.5525 17.4058L3.44752 17.4058C2.62083 17.4058 1.95083 16.7795 1.95083 16.0071L1.95083 3.01688C1.95083 1.62068 3.16203 0.488841 4.65611 0.488841L11.344 0.488842C12.8381 0.488842 14.0493 1.62068 14.0493 3.01688L14.0493 16.0071C14.0493 16.7795 13.3792 17.4058 12.5525 17.4058Z" fill="#1746E2"/>
<path d="M8.00003 1.07379C5.84583 1.07379 4.09949 2.7057 4.09949 4.71878C4.09949 6.73185 5.84583 8.36377 8.00003 8.36377C10.1542 8.36377 11.9006 6.73185 11.9006 4.71878C11.9006 2.70571 10.1542 1.07379 8.00003 1.07379Z" fill="#1C4FF5"/>
<path d="M13.3723 9.1333L2.62767 9.1333L2.62767 7.21186C2.62767 5.95567 3.71734 4.9374 5.0616 4.9374L10.9384 4.9374C12.2826 4.9374 13.3723 5.95568 13.3723 7.21187L13.3723 9.1333Z" fill="#222B32"/>
<path d="M11.8821 16.6296L4.11809 16.6296C3.2914 16.6296 2.6214 16.0034 2.6214 15.231L2.6214 9.28011C2.6214 8.19986 3.5585 7.32416 4.71449 7.32416L11.2857 7.32416C12.4417 7.32416 13.3788 8.19986 13.3788 9.28011L13.3788 15.231C13.3788 16.0034 12.7086 16.6296 11.8821 16.6296Z" fill="#1C4FF5"/>
<path d="M11.5142 0.489258L4.48583 0.489257L4.48583 0.345661C4.48583 0.154711 4.65144 -5.08765e-05 4.85578 -5.08586e-05L11.1442 -5.03089e-05C11.3486 -5.0291e-05 11.5142 0.154712 11.5142 0.345662L11.5142 0.489258Z" fill="#222B32"/>
<path d="M1.49767 7.01743L0.184996 7.01743C0.0828275 7.01743 2.13731e-05 7.09481 2.13648e-05 7.19028L2.13536e-05 7.31835C2.13452e-05 7.41383 0.0828274 7.49121 0.184996 7.49121L1.49767 7.49121C1.59984 7.49121 1.68265 7.41383 1.68265 7.31835L1.68265 7.19028C1.68278 7.09481 1.59998 7.01743 1.49767 7.01743Z" fill="#222221"/>
<path d="M2.2598 6.79878L1.02952 6.79878C0.925567 6.79878 0.841388 6.87744 0.841388 6.97458C0.841388 7.07173 0.925567 7.15039 1.02952 7.15039L2.2598 7.15039C2.36376 7.15039 2.44794 7.07173 2.44794 6.97458C2.44794 6.87757 2.36362 6.79878 2.2598 6.79878Z" fill="#222221"/>
<path d="M14.5023 7.01743L15.815 7.01743C15.9172 7.01743 16 7.09481 16 7.19028L16 7.31835C16 7.41383 15.9172 7.49121 15.815 7.49121L14.5023 7.49121C14.4002 7.49121 14.3174 7.41383 14.3174 7.31835L14.3174 7.19028C14.3172 7.09481 14.4002 7.01743 14.5023 7.01743Z" fill="#222221"/>
<path d="M13.7403 6.79878L14.9706 6.79878C15.0746 6.79878 15.1588 6.87744 15.1588 6.97458C15.1588 7.07173 15.0746 7.15039 14.9706 7.15039L13.7403 7.15039C13.6364 7.15039 13.5522 7.07173 13.5522 6.97458C13.5522 6.87757 13.6364 6.79878 13.7403 6.79878Z" fill="#222221"/>
<path d="M4.2625 16.071C4.05788 16.071 3.892 15.916 3.892 15.7248L3.892 9.20043C3.892 9.00923 4.05789 8.85421 4.2625 8.85421C4.46711 8.85421 4.633 9.00923 4.633 9.20043L4.633 15.7248C4.63313 15.916 4.46725 16.071 4.2625 16.071Z" fill="#1746E2"/>
<path d="M5.50847 16.071C5.30386 16.071 5.13797 15.916 5.13797 15.7248L5.13797 9.20043C5.13797 9.00923 5.30386 8.85421 5.50847 8.85421C5.71308 8.85421 5.87897 9.00923 5.87897 9.20043L5.87897 15.7248C5.87897 15.916 5.71308 16.071 5.50847 16.071Z" fill="#1746E2"/>
<path d="M6.75423 16.071C6.54961 16.071 6.38373 15.916 6.38373 15.7248L6.38373 9.20043C6.38373 9.00923 6.54961 8.85421 6.75423 8.85421C6.95884 8.85421 7.12473 9.00923 7.12473 9.20043L7.12473 15.7248C7.12486 15.916 6.95898 16.071 6.75423 16.071Z" fill="#1746E2"/>
<path d="M8.0002 16.071C7.79559 16.071 7.6297 15.916 7.6297 15.7248L7.6297 9.20043C7.6297 9.00923 7.79559 8.85421 8.0002 8.85421C8.20481 8.85421 8.3707 9.00923 8.3707 9.20043L8.3707 15.7248C8.3707 15.916 8.20481 16.071 8.0002 16.071Z" fill="#1746E2"/>
<path d="M9.24605 16.071C9.04144 16.071 8.87555 15.916 8.87555 15.7248L8.87555 9.20043C8.87555 9.00923 9.04144 8.85421 9.24605 8.85421C9.45066 8.85421 9.61655 9.00923 9.61655 9.20043L9.61655 15.7248C9.61668 15.916 9.45066 16.071 9.24605 16.071Z" fill="#1746E2"/>
<path d="M10.4919 16.071C10.2873 16.071 10.1214 15.916 10.1214 15.7248L10.1214 9.20043C10.1214 9.00923 10.2873 8.85421 10.4919 8.85421C10.6965 8.85421 10.8624 9.00923 10.8624 9.20043L10.8624 15.7248C10.8624 15.916 10.6965 16.071 10.4919 16.071Z" fill="#1746E2"/>
<path d="M11.7377 16.071C11.5331 16.071 11.3672 15.916 11.3672 15.7248L11.3672 9.20043C11.3672 9.00923 11.5331 8.85421 11.7377 8.85421C11.9424 8.85421 12.1082 9.00923 12.1082 9.20043L12.1082 15.7248C12.1082 15.916 11.9424 16.071 11.7377 16.071Z" fill="#1746E2"/>
</svg>
