<svg width="20" height="32" viewBox="0 0 20 32" fill="none" xmlns="http://www.w3.org/2000/svg">
<g clip-path="url(#clip0_402_5503)">
<path d="M15.6836 1.51291C11.9765 -0.160702 7.93074 -0.160694 4.2207 1.50992C4.09129 1.56635 3.95894 1.6296 3.8298 1.6923L3.8298 31.0447C4.08223 31.073 4.33785 31.0981 4.59347 31.1232C8.15569 31.4754 11.7489 31.4754 15.3111 31.1232C15.5667 31.0981 15.8191 31.073 16.0747 31.0447L16.075 1.69202C15.9453 1.62932 15.8159 1.56961 15.6836 1.51291Z" fill="#1C4FF5"/>
<path d="M14.9327 4.62943C14.9324 4.16406 14.5634 3.78704 14.1079 3.78676L5.79607 3.78676C5.34086 3.78676 4.97157 4.16406 4.9713 4.62942L4.9713 29.3364C4.9713 29.8015 5.3406 30.1788 5.79608 30.1791L14.1079 30.1791C14.5634 30.1793 14.9327 29.802 14.9327 29.3364L14.9327 4.62943Z" fill="#1C4FF5"/>
<path d="M15.6836 1.51275C11.9765 -0.160864 7.93075 -0.160856 4.22071 1.50976L4.46406 2.65149C4.55639 3.0855 4.93182 3.39383 5.36623 3.39383L14.5383 3.39382C14.9722 3.39382 15.3482 3.08549 15.4405 2.65148L15.6836 1.51275Z" fill="#222221"/>
<path d="M4.6052 26.351C4.6052 26.2049 4.50648 26.0779 4.36666 26.0446L3.82953 25.9173L3.82953 29.9766L4.36666 29.8493C4.50622 29.8163 4.60495 29.6893 4.60468 29.5429L4.6052 26.351Z" fill="#222221"/>
<path d="M4.60521 4.4348C4.60521 4.28868 4.50648 4.16164 4.3672 4.12838L3.83006 4.00107L3.83006 8.06037L4.3672 7.93306C4.50675 7.90007 4.60548 7.77303 4.60521 7.62664L4.60521 4.4348Z" fill="#222221"/>
<path d="M4.60494 17.9568C4.60493 17.8107 4.50621 17.6836 4.36692 17.6504L3.82978 17.523L3.82979 25.3172L4.36692 25.1899C4.50647 25.1569 4.6052 25.0299 4.60493 24.8835L4.60494 17.9568Z" fill="#222221"/>
<path d="M4.6052 9.30218C4.6052 9.15606 4.50647 9.02902 4.36692 8.99603L3.82979 8.86871L3.82979 16.6629L4.36692 16.5356C4.50647 16.5026 4.60521 16.3756 4.60494 16.2292L4.6052 9.30218Z" fill="#222221"/>
<path d="M15.5373 26.0446C15.3978 26.0776 15.2991 26.2047 15.2993 26.3511L15.2991 29.5426C15.2991 29.6887 15.3978 29.8158 15.5373 29.8488L16.0745 29.9761L16.0745 25.9168L15.5373 26.0446Z" fill="#222221"/>
<path d="M15.5373 4.12814C15.3978 4.16112 15.2991 4.28817 15.2991 4.43429L15.2993 7.62585C15.2993 7.77197 15.3981 7.89901 15.5373 7.93227L16.0745 8.05958L16.0745 4.00028L15.5373 4.12814Z" fill="#222221"/>
<path d="M15.5373 17.6501C15.3978 17.6831 15.2991 17.8101 15.2991 17.9563L15.2991 24.8824C15.2991 25.0286 15.3978 25.1556 15.5371 25.1889L16.0742 25.3162L16.0745 17.5223L15.5373 17.6501Z" fill="#222221"/>
<path d="M15.5374 8.99555C15.3978 9.02854 15.2991 9.15558 15.2993 9.30197L15.2993 16.2281C15.2993 16.3743 15.3981 16.5013 15.5374 16.5346L16.0745 16.6619L16.0748 8.86796L15.5374 8.99555Z" fill="#222221"/>
<path d="M16.0747 1.69225V2.06792L17.5068 2.69686L17.5071 2.32146L16.0747 1.69225Z" fill="#435266"/>
<path d="M17.5111 2.69671L17.5031 2.69671C17.1632 2.69671 16.8873 2.97859 16.8873 3.32591L16.8873 3.71848H18.127L18.127 3.32591C18.1267 2.97832 17.8511 2.69671 17.5111 2.69671Z" fill="#1C4FF5"/>
<path d="M2.39717 2.32098V2.69664L3.82953 2.06743L3.82953 1.69177L2.39717 2.32098Z" fill="#435266"/>
<path d="M2.40144 2.69671L2.39343 2.6967C2.05349 2.6967 1.77785 2.97832 1.77758 3.32591L1.77758 3.71848L3.01729 3.71849L3.01729 3.32592C3.01702 2.97833 2.74138 2.69671 2.40144 2.69671Z" fill="#1C4FF5"/>
<path d="M14.9476 30.5947L4.95634 30.5948C4.81492 30.5948 4.68845 30.6956 4.65749 30.8368L4.59292 31.1231C8.15514 31.4753 11.7483 31.4753 15.3105 31.1231L15.246 30.8368C15.2155 30.6956 15.0893 30.595 14.9476 30.5947Z" fill="#222221"/>
<path d="M13.2701 21.2042C13.2701 20.4453 12.6681 19.8302 11.9252 19.8302H8.64478C7.90192 19.8302 7.29994 20.4453 7.29994 21.2042L7.29995 22.7898C7.29995 23.5488 7.90219 24.1641 8.64479 24.1638L11.9252 24.1638C12.6681 24.1638 13.2701 23.5488 13.2701 22.7898L13.2701 21.2042Z" fill="#1C4FF5"/>
<path d="M12.9371 20.8641C12.9371 20.1052 12.3348 19.4899 11.5922 19.4901L8.3118 19.4901C7.56894 19.4901 6.96697 20.1052 6.96697 20.8641L6.96697 22.4497C6.96697 23.2087 7.56894 23.8237 8.31181 23.8237L11.5922 23.8237C12.3351 23.8237 12.9371 23.2087 12.9371 22.4497L12.9371 20.8641Z" fill="#222221"/>
<path d="M11.7687 20.2446H8.134V20.4956H11.7687V20.2446Z" fill="#435266"/>
<path d="M13.2701 12.462C13.2701 11.7031 12.6681 11.088 11.9252 11.088H8.64478C7.90192 11.088 7.29994 11.7031 7.29994 12.462L7.29995 14.0476C7.29995 14.8066 7.90219 15.4219 8.64478 15.4216H11.9252C12.6681 15.4216 13.2701 14.8066 13.2701 14.0476L13.2701 12.462Z" fill="#1C4FF5"/>
<path d="M12.9371 12.1217C12.9371 11.3627 12.3351 10.7477 11.5922 10.7477H8.31177C7.56891 10.7477 6.96694 11.3627 6.96694 12.1217L6.96694 13.7073C6.96694 14.4662 7.56891 15.0813 8.31177 15.0813H11.5922C12.3351 15.0813 12.937 14.4662 12.937 13.7073L12.9371 12.1217Z" fill="#222221"/>
<path d="M11.7687 11.5024H8.134V11.7534H11.7687V11.5024Z" fill="#435266"/>
</g>
<defs>
<clipPath id="clip0_402_5503">
<rect width="20" height="32" fill="white"/>
</clipPath>
</defs>
</svg>
