<svg width="22" height="30" viewBox="0 0 22 30" fill="none" xmlns="http://www.w3.org/2000/svg">
<path d="M17.5138 20.9819C18.0968 20.8533 18.7304 20.879 19.3387 20.9819C19.5415 21.0334 19.6936 21.1877 19.6936 21.3935L19.6936 24.2746C19.6936 24.4804 19.5415 24.6348 19.3387 24.6862C18.7558 24.8148 18.1221 24.7891 17.5138 24.6862C17.3111 24.6348 17.1844 24.4547 17.1844 24.2489L17.1844 21.3678C17.1844 21.2135 17.3111 21.0334 17.5138 20.9819Z" fill="#D6D6D6"/>
<path d="M17.4378 20.2873C18.0714 20.0044 18.8064 19.9786 19.4654 20.2873C19.4654 21.9851 19.4654 23.6829 19.4654 25.3807C18.8318 25.6637 18.0968 25.6894 17.4378 25.3807C17.4378 23.6829 17.4378 21.9851 17.4378 20.2873Z" fill="#222221"/>
<path d="M18.0715 20.3645C18.2996 20.3387 18.553 20.3387 18.7811 20.3645C18.8065 20.2873 18.8318 20.1587 18.8572 20.0815C19.0599 20.1329 19.2374 20.1587 19.4148 20.2873L19.4148 20.2358C19.212 20.1329 19.0092 20.0815 18.8065 20.03C18.7811 20.1072 18.7558 20.2358 18.7304 20.313C18.553 20.2873 18.3503 20.2873 18.1222 20.313C18.0968 20.2358 18.0715 20.1072 18.0461 20.03C17.8434 20.0815 17.6406 20.1329 17.4378 20.2358L17.4378 20.2873C17.6152 20.2101 17.7927 20.1329 17.9954 20.0815C17.9954 20.1844 18.0461 20.2873 18.0715 20.3645Z" fill="#222221"/>
<path d="M18.0715 20.8788C18.2996 20.8531 18.553 20.8531 18.7811 20.8788C18.8065 20.8016 18.8318 20.673 18.8572 20.5958C19.0346 20.6216 19.2374 20.673 19.4148 20.7502L19.4148 20.6987C19.2374 20.6216 19.0092 20.5444 18.8065 20.5444C18.7811 20.6216 18.7558 20.7502 18.7304 20.8274C18.5277 20.8274 18.3249 20.8274 18.1222 20.8274C18.0968 20.7502 18.0715 20.6216 18.0461 20.5444C17.818 20.5701 17.6152 20.6216 17.4378 20.6987L17.4378 20.7502C17.6152 20.673 17.818 20.6216 17.9954 20.5958C18.0208 20.673 18.0461 20.7502 18.0715 20.8788Z" fill="#222221"/>
<path d="M18.0714 21.342C18.2996 21.3163 18.553 21.3163 18.7811 21.342C18.8065 21.2649 18.8318 21.1362 18.8572 21.0591C19.0346 21.0848 19.2373 21.1362 19.4148 21.162L19.4148 21.1105C19.212 21.0591 19.0092 21.0076 18.7811 20.9819C18.7558 21.0591 18.7304 21.1877 18.7051 21.2649C18.5023 21.2649 18.2996 21.2649 18.0968 21.2649C18.0714 21.1877 18.0461 21.0591 18.0208 20.9819C17.7926 21.0076 17.5899 21.0591 17.3871 21.1105L17.3871 21.162C17.5645 21.0848 17.742 21.0591 17.9447 21.0591C18.0208 21.1362 18.0461 21.2649 18.0714 21.342Z" fill="#222221"/>
<path d="M18.0461 21.8307C18.2742 21.805 18.5277 21.805 18.7558 21.8307C18.8065 21.7278 18.8572 21.6249 18.8572 21.522C19.0346 21.5478 19.2374 21.5478 19.4148 21.6249L19.4148 21.5735C19.212 21.522 19.0092 21.4706 18.8065 21.4706C18.7811 21.5478 18.7558 21.6764 18.7304 21.7536C18.5277 21.7536 18.3249 21.7536 18.1222 21.7536C18.0968 21.6764 18.0715 21.5478 18.0461 21.4706C17.818 21.4963 17.6406 21.522 17.4378 21.5735L17.4378 21.6249C17.6152 21.5992 17.818 21.5478 17.9954 21.522C17.9954 21.6249 18.0461 21.7278 18.0461 21.8307Z" fill="#222221"/>
<path d="M18.0715 22.3193C18.3249 22.3193 18.553 22.2936 18.7811 22.3193C18.8065 22.2422 18.8318 22.1135 18.8572 22.0364C19.0599 22.0364 19.2374 22.0621 19.4148 22.0878L19.4148 22.0364C19.2374 22.0107 19.0092 21.9849 18.8065 21.9849C18.7811 22.0621 18.7558 22.1907 18.7304 22.2679C18.5277 22.2679 18.3249 22.2679 18.1222 22.2679C18.0715 22.165 18.0715 22.0621 18.0461 21.9849C17.8434 21.9849 17.6152 22.0107 17.4378 22.0364L17.4378 22.0878C17.6152 22.0621 17.7927 22.0364 17.9954 22.0364C18.0208 22.1135 18.0461 22.1907 18.0715 22.3193Z" fill="#222221"/>
<path d="M18.0714 22.7823C18.3249 22.7823 18.5277 22.7823 18.7811 22.7823C18.8318 22.6794 18.8318 22.5765 18.8825 22.4736C19.0853 22.4736 19.2627 22.4994 19.4401 22.4736L19.4401 22.4222C19.2373 22.4222 19.0599 22.3965 18.8065 22.3965C18.7811 22.4736 18.7558 22.6023 18.7051 22.7051C18.5023 22.7051 18.2996 22.7051 18.0968 22.7051C18.0461 22.6023 18.0461 22.4994 17.9954 22.3965C17.7926 22.3965 17.5645 22.4222 17.3618 22.4222L17.3618 22.4736C17.5392 22.4479 17.742 22.4479 17.9194 22.4736C18.0208 22.5765 18.0461 22.7051 18.0714 22.7823Z" fill="#222221"/>
<path d="M18.0461 23.271C18.2996 23.271 18.5277 23.2967 18.7558 23.271C18.8065 23.1681 18.8572 23.0652 18.8572 22.9623C19.0599 22.9623 19.2374 22.9366 19.4148 22.9623L19.4148 22.9109C19.212 22.9109 19.0092 22.9109 18.8065 22.9109C18.7811 22.9881 18.7558 23.0652 18.7304 23.1939C18.5277 23.1939 18.3249 23.1939 18.1222 23.1939C18.0715 23.091 18.0715 22.9881 18.0208 22.8852C17.818 22.8852 17.6152 22.8852 17.4125 22.8852L17.4125 22.9366C17.5899 22.9623 17.7673 22.9366 17.9701 22.9366C17.9954 23.0652 18.0461 23.1681 18.0461 23.271Z" fill="#222221"/>
<path d="M18.0715 23.7601C18.2996 23.7859 18.553 23.7859 18.7811 23.7601C18.8065 23.6315 18.8318 23.5543 18.8825 23.4514C19.0853 23.4514 19.2627 23.4257 19.4401 23.4L19.4401 23.3485C19.2374 23.3485 19.0346 23.4 18.8318 23.4C18.7811 23.5029 18.7811 23.6058 18.7304 23.7087C18.5277 23.7087 18.3249 23.7087 18.1222 23.7087C18.0715 23.6058 18.0715 23.5029 18.0208 23.4C17.818 23.4 17.5899 23.3743 17.4125 23.3485L17.4125 23.4C17.5899 23.4257 17.7927 23.4257 17.9701 23.4514C18.0208 23.5543 18.0208 23.6572 18.0715 23.7601Z" fill="#222221"/>
<path d="M18.0714 24.2229C18.2996 24.2487 18.553 24.2487 18.7811 24.2229C18.8318 24.12 18.8318 24.0171 18.8825 23.9142C19.0599 23.8885 19.2627 23.8885 19.4401 23.8628L19.4401 23.8113C19.2373 23.8628 19.0346 23.8628 18.8065 23.8885C18.7558 23.9914 18.7558 24.0943 18.7051 24.1972C18.5023 24.1972 18.2996 24.1972 18.0968 24.1972C18.0461 24.0943 18.0461 23.9914 17.9954 23.8885C17.7926 23.8885 17.5645 23.8628 17.3618 23.8113L17.3618 23.8628C17.5392 23.8885 17.7166 23.9142 17.9194 23.9142C18.0208 24.0171 18.0461 24.1458 18.0714 24.2229Z" fill="#222221"/>
<path d="M18.0461 24.712C18.2742 24.7377 18.5277 24.7377 18.7558 24.712C18.8065 24.6091 18.8065 24.5062 18.8572 24.4033C19.0346 24.3776 19.2373 24.3261 19.4148 24.3004L19.4148 24.2489C19.212 24.3004 19.0092 24.3518 18.8065 24.3518C18.7558 24.4547 18.7558 24.5576 18.7051 24.6605C18.5023 24.6605 18.2996 24.6605 18.0968 24.6605C18.0461 24.5576 18.0461 24.4547 17.9954 24.3518C17.7673 24.3261 17.5899 24.3004 17.3871 24.2489L17.3871 24.3004C17.5899 24.3518 17.7926 24.4033 17.9954 24.4033C17.9954 24.5062 18.0461 24.6091 18.0461 24.712Z" fill="#222221"/>
<path d="M18.0714 25.2008C18.2995 25.2265 18.553 25.2265 18.7811 25.2008C18.8318 25.0979 18.8318 24.995 18.8825 24.8921C19.0599 24.8663 19.2627 24.8149 19.4401 24.7377L19.4401 24.6863C19.2373 24.7377 19.0345 24.7892 18.8318 24.8406C18.7811 24.9435 18.7811 25.0464 18.7304 25.1493C18.5276 25.1493 18.3249 25.1493 18.1221 25.1493C18.0968 25.0207 18.0714 24.8921 18.0461 24.8149C17.818 24.7892 17.6152 24.7377 17.4378 24.6606L17.4378 24.712C17.6152 24.7892 17.7926 24.8149 17.9954 24.8663C18.0207 24.995 18.0207 25.0979 18.0714 25.2008Z" fill="#222221"/>
<path d="M18.0714 25.6635C18.2996 25.6892 18.553 25.6892 18.7811 25.6635C18.8318 25.5606 18.8318 25.4577 18.8825 25.3548C19.0599 25.3291 19.2627 25.2776 19.4401 25.2004L19.4401 25.149C19.2373 25.2519 19.0346 25.3033 18.8065 25.3291C18.7558 25.432 18.7558 25.5349 18.7051 25.6377C18.5277 25.6635 18.3249 25.6635 18.0968 25.6377C18.0461 25.5349 18.0461 25.432 17.9954 25.3291C17.7673 25.3033 17.5899 25.2262 17.3618 25.149L17.3618 25.2004C17.5392 25.2776 17.742 25.3291 17.9194 25.3548C18.0208 25.4577 18.0461 25.5863 18.0714 25.6635Z" fill="#222221"/>
<path opacity="0.5" d="M17.4378 20.6987C17.4378 20.5443 17.4378 20.39 17.4378 20.1842C17.6406 20.0813 17.8434 20.0298 18.0461 19.9784C18.0715 20.0041 18.0461 20.0298 18.0715 20.0556C18.3249 20.0041 18.553 20.0298 18.7811 20.0556C18.8065 20.0298 18.7811 20.0041 18.8065 19.9784C19.0092 20.0298 19.212 20.0813 19.4148 20.1842C19.4148 20.3385 19.4148 20.4929 19.4148 20.6987C18.8065 20.4414 18.0461 20.4414 17.4378 20.6987Z" fill="#222221"/>
<path opacity="0.5" d="M19.4145 24.3001C19.4145 24.6603 19.4145 25.0204 19.4145 25.3805C19.2118 25.4834 19.0344 25.5606 18.8062 25.5863C18.7809 25.6121 18.8062 25.6378 18.7809 25.6635C18.5528 25.6892 18.2993 25.6892 18.0712 25.6635C18.0459 25.6378 18.0712 25.6121 18.0459 25.5863C17.8178 25.5606 17.6403 25.4834 17.4376 25.3805C17.4376 25.0204 17.4376 24.6603 17.4376 24.3001C18.0459 24.4545 18.8062 24.4545 19.4145 24.3001Z" fill="#222221"/>
<path d="M4.48618 20.9819C3.90323 20.8533 3.26959 20.879 2.6613 20.9819C2.45853 21.0334 2.30646 21.1877 2.30646 21.3935L2.30646 24.2746C2.30646 24.4804 2.45853 24.6348 2.6613 24.6862C3.24425 24.8148 3.87789 24.7891 4.48618 24.6862C4.68895 24.6348 4.81568 24.4547 4.81568 24.2489L4.81568 21.3678C4.81568 21.2135 4.68895 21.0334 4.48618 20.9819Z" fill="#D6D6D6"/>
<path d="M4.56223 20.2873C3.92859 20.0044 3.19356 19.9786 2.53458 20.2873C2.53458 21.9851 2.53458 23.6829 2.53458 25.3807C3.16822 25.6637 3.90324 25.6894 4.56223 25.3807C4.56223 23.6829 4.56223 21.9851 4.56223 20.2873Z" fill="#222221"/>
<path d="M3.9286 20.3645C3.70049 20.3387 3.44703 20.3387 3.21892 20.3645C3.19358 20.2873 3.16823 20.1587 3.14289 20.0815C2.94012 20.1329 2.7627 20.1587 2.58528 20.2873L2.58528 20.2358C2.78805 20.1329 2.99081 20.0815 3.19358 20.03C3.21892 20.1072 3.24427 20.2358 3.26961 20.313C3.44703 20.2873 3.6498 20.2873 3.87791 20.313C3.90325 20.2358 3.9286 20.1072 3.95394 20.03C4.15671 20.0815 4.35947 20.1329 4.56224 20.2358L4.56224 20.2873C4.38482 20.2101 4.2074 20.1329 4.00464 20.0815C4.00464 20.1844 3.95394 20.2873 3.9286 20.3645Z" fill="#222221"/>
<path d="M3.9286 20.8788C3.70049 20.8531 3.44703 20.8531 3.21892 20.8788C3.19358 20.8016 3.16823 20.673 3.14289 20.5958C2.96547 20.6216 2.7627 20.673 2.58528 20.7502L2.58528 20.6987C2.7627 20.6216 2.99081 20.5444 3.19358 20.5444C3.21892 20.6216 3.24427 20.7502 3.26961 20.8274C3.47238 20.8274 3.67514 20.8274 3.87791 20.8274C3.90325 20.7502 3.9286 20.6216 3.95395 20.5444C4.18206 20.5701 4.38482 20.6216 4.56224 20.6987L4.56224 20.7502C4.38482 20.673 4.18206 20.6216 4.00464 20.5958C3.97929 20.673 3.95395 20.7502 3.9286 20.8788Z" fill="#222221"/>
<path d="M3.92858 21.342C3.70047 21.3163 3.44702 21.3163 3.21891 21.342C3.19356 21.2649 3.16821 21.1362 3.14287 21.0591C2.96545 21.0848 2.76269 21.1362 2.58527 21.162L2.58527 21.1105C2.78803 21.0591 2.9908 21.0076 3.21891 20.9819C3.24425 21.0591 3.2696 21.1877 3.29494 21.2649C3.49771 21.2649 3.70047 21.2649 3.90324 21.2649C3.92858 21.1877 3.95393 21.0591 3.97927 20.9819C4.20738 21.0076 4.41015 21.0591 4.61291 21.1105L4.61292 21.162C4.4355 21.0848 4.25808 21.0591 4.05531 21.0591C3.97927 21.1362 3.95393 21.2649 3.92858 21.342Z" fill="#222221"/>
<path d="M3.95395 21.8307C3.72583 21.805 3.47238 21.805 3.24427 21.8307C3.19358 21.7278 3.14289 21.6249 3.14289 21.522C2.96547 21.5478 2.7627 21.5478 2.58528 21.6249L2.58528 21.5735C2.78805 21.522 2.99081 21.4706 3.19358 21.4706C3.21892 21.5478 3.24427 21.6764 3.26961 21.7536C3.47238 21.7536 3.67514 21.7536 3.87791 21.7536C3.90325 21.6764 3.9286 21.5478 3.95395 21.4706C4.18206 21.4963 4.35948 21.522 4.56224 21.5735L4.56224 21.6249C4.38482 21.5992 4.18206 21.5478 4.00464 21.522C4.00464 21.6249 3.95395 21.7278 3.95395 21.8307Z" fill="#222221"/>
<path d="M3.9286 22.3193C3.67514 22.3193 3.44703 22.2936 3.21892 22.3193C3.19358 22.2422 3.16823 22.1135 3.14289 22.0364C2.94012 22.0364 2.7627 22.0621 2.58528 22.0878L2.58528 22.0364C2.7627 22.0107 2.99081 21.9849 3.19358 21.9849C3.21892 22.0621 3.24427 22.1907 3.26961 22.2679C3.47238 22.2679 3.67514 22.2679 3.87791 22.2679C3.9286 22.165 3.9286 22.0621 3.95394 21.9849C4.15671 21.9849 4.38482 22.0107 4.56224 22.0364L4.56224 22.0878C4.38482 22.0621 4.2074 22.0364 4.00464 22.0364C3.97929 22.1135 3.95394 22.1907 3.9286 22.3193Z" fill="#222221"/>
<path d="M3.92858 22.7823C3.67513 22.7823 3.47236 22.7823 3.21891 22.7823C3.16821 22.6794 3.16822 22.5765 3.11752 22.4736C2.91476 22.4736 2.73734 22.4994 2.55992 22.4736L2.55992 22.4222C2.76269 22.4222 2.9401 22.3965 3.19356 22.3965C3.21891 22.4736 3.24425 22.6023 3.29494 22.7051C3.49771 22.7051 3.70047 22.7051 3.90324 22.7051C3.95393 22.6023 3.95393 22.4994 4.00462 22.3965C4.20739 22.3965 4.4355 22.4222 4.63826 22.4222L4.63826 22.4736C4.46084 22.4479 4.25808 22.4479 4.08066 22.4736C3.97928 22.5765 3.95393 22.7051 3.92858 22.7823Z" fill="#222221"/>
<path d="M3.95395 23.271C3.70049 23.271 3.47238 23.2967 3.24427 23.271C3.19358 23.1681 3.14289 23.0652 3.14289 22.9623C2.94012 22.9623 2.7627 22.9366 2.58528 22.9623L2.58528 22.9109C2.78805 22.9109 2.99081 22.9109 3.19358 22.9109C3.21892 22.9881 3.24427 23.0652 3.26961 23.1939C3.47238 23.1939 3.67514 23.1939 3.87791 23.1939C3.9286 23.091 3.9286 22.9881 3.97929 22.8852C4.18206 22.8852 4.38482 22.8852 4.58759 22.8852L4.58759 22.9366C4.41017 22.9623 4.23275 22.9366 4.02998 22.9366C4.00464 23.0652 3.95395 23.1681 3.95395 23.271Z" fill="#222221"/>
<path d="M3.9286 23.7601C3.70049 23.7859 3.44703 23.7859 3.21892 23.7601C3.19358 23.6315 3.16823 23.5543 3.11754 23.4514C2.91478 23.4514 2.73736 23.4257 2.55994 23.4L2.55994 23.3485C2.7627 23.3485 2.96547 23.4 3.16823 23.4C3.21892 23.5029 3.21892 23.6058 3.26961 23.7087C3.47238 23.7087 3.67514 23.7087 3.87791 23.7087C3.9286 23.6058 3.9286 23.5029 3.97929 23.4C4.18206 23.4 4.41017 23.3743 4.58759 23.3485L4.58759 23.4C4.41017 23.4257 4.2074 23.4257 4.02998 23.4514C3.97929 23.5543 3.97929 23.6572 3.9286 23.7601Z" fill="#222221"/>
<path d="M3.92858 24.2229C3.70047 24.2487 3.44702 24.2487 3.21891 24.2229C3.16822 24.12 3.16821 24.0171 3.11752 23.9142C2.9401 23.8885 2.73734 23.8885 2.55992 23.8628L2.55992 23.8113C2.76269 23.8628 2.96545 23.8628 3.19356 23.8885C3.24425 23.9914 3.24425 24.0943 3.29494 24.1972C3.49771 24.1972 3.70047 24.1972 3.90324 24.1972C3.95393 24.0943 3.95393 23.9914 4.00462 23.8885C4.20738 23.8885 4.4355 23.8628 4.63826 23.8113L4.63826 23.8628C4.46084 23.8885 4.28342 23.9142 4.08066 23.9142C3.97927 24.0171 3.95393 24.1458 3.92858 24.2229Z" fill="#222221"/>
<path d="M3.95393 24.712C3.72582 24.7377 3.47236 24.7377 3.24425 24.712C3.19356 24.6091 3.19356 24.5062 3.14287 24.4033C2.96545 24.3776 2.76269 24.3261 2.58527 24.3004L2.58527 24.2489C2.78803 24.3004 2.9908 24.3518 3.19356 24.3518C3.24425 24.4547 3.24425 24.5576 3.29494 24.6605C3.49771 24.6605 3.70047 24.6605 3.90324 24.6605C3.95393 24.5576 3.95393 24.4547 4.00462 24.3518C4.23273 24.3261 4.41015 24.3004 4.61292 24.2489L4.61292 24.3004C4.41015 24.3518 4.20739 24.4033 4.00462 24.4033C4.00462 24.5062 3.95393 24.6091 3.95393 24.712Z" fill="#222221"/>
<path d="M3.92859 25.2008C3.70047 25.2265 3.44702 25.2265 3.21891 25.2008C3.16822 25.0979 3.16822 24.995 3.11753 24.8921C2.94011 24.8663 2.73734 24.8149 2.55992 24.7377L2.55992 24.6863C2.76269 24.7377 2.96545 24.7892 3.16822 24.8406C3.21891 24.9435 3.21891 25.0464 3.2696 25.1493C3.47236 25.1493 3.67513 25.1493 3.87789 25.1493C3.90324 25.0207 3.92859 24.8921 3.95393 24.8149C4.18204 24.7892 4.38481 24.7377 4.56223 24.6606L4.56223 24.712C4.38481 24.7892 4.20739 24.8149 4.00462 24.8663C3.97928 24.995 3.97928 25.0979 3.92859 25.2008Z" fill="#222221"/>
<path d="M3.92858 25.6635C3.70047 25.6892 3.44702 25.6892 3.21891 25.6635C3.16822 25.5606 3.16822 25.4577 3.11752 25.3548C2.94011 25.3291 2.73734 25.2776 2.55992 25.2004L2.55992 25.149C2.76269 25.2519 2.96545 25.3033 3.19356 25.3291C3.24425 25.432 3.24425 25.5349 3.29494 25.6377C3.47236 25.6635 3.67513 25.6635 3.90324 25.6377C3.95393 25.5349 3.95393 25.432 4.00462 25.3291C4.23273 25.3033 4.41015 25.2262 4.63826 25.149L4.63826 25.2004C4.46084 25.2776 4.25808 25.3291 4.08066 25.3548C3.97927 25.4577 3.95393 25.5863 3.92858 25.6635Z" fill="#222221"/>
<path opacity="0.5" d="M4.56224 20.6987C4.56224 20.5443 4.56224 20.39 4.56224 20.1842C4.35947 20.0813 4.15671 20.0298 3.95394 19.9784C3.9286 20.0041 3.95395 20.0298 3.9286 20.0556C3.67514 20.0041 3.44703 20.0298 3.21892 20.0556C3.19358 20.0298 3.21892 20.0041 3.19358 19.9784C2.99081 20.0298 2.78805 20.0813 2.58528 20.1842C2.58528 20.3385 2.58528 20.4929 2.58528 20.6987C3.19358 20.4414 3.95395 20.4414 4.56224 20.6987Z" fill="#222221"/>
<path opacity="0.5" d="M2.58543 24.3001C2.58543 24.6603 2.58544 25.0204 2.58544 25.3805C2.7882 25.4834 2.96562 25.5606 3.19373 25.5863C3.21908 25.6121 3.19373 25.6378 3.21908 25.6635C3.44719 25.6892 3.70064 25.6892 3.92875 25.6635C3.9541 25.6378 3.92875 25.6121 3.9541 25.5863C4.18221 25.5606 4.35963 25.4834 4.56239 25.3805C4.56239 25.0204 4.56239 24.6603 4.56239 24.3001C3.9541 24.4545 3.19373 24.4545 2.58543 24.3001Z" fill="#222221"/>
<path d="M10.2903 1.58189C10.7465 1.68479 11.2281 1.71051 11.6843 1.55617L11.7096 1.53044L16.0944 8.19298L15.4355 8.65602L11 1.94203L6.56449 8.65602L5.9055 8.19298L10.2903 1.58189Z" fill="#222221"/>
<path d="M10.1382 1.22171C10.1382 0.758675 10.5437 0.347089 11 0.347089C11.4562 0.347089 11.8617 0.758675 11.8617 1.22171C11.8617 1.68474 11.4562 2.09633 11 2.09633C10.5437 2.09633 10.1382 1.68474 10.1382 1.22171ZM10.6705 1.19599C10.6705 1.40178 10.7972 1.5304 11 1.5304C11.2027 1.5304 11.3295 1.40178 11.3295 1.19599C11.3295 0.990192 11.2027 0.861571 11 0.861571C10.8226 0.887295 10.6705 1.04164 10.6705 1.19599Z" fill="#222221"/>
<path d="M4.386 29.5757H17.6482V7.49363H4.386V29.5757Z" fill="#102030"/>
<path d="M3.52575 28.6663H18.4726V8.43953H3.52575V28.6663Z" fill="#224ACA"/>
<path d="M6.21403 28.6665H15.7485V8.43977H6.21403V28.6665Z" fill="#1C4FF5"/>
<path d="M14.0288 29.9998H15.7493V29.5632H14.0288V29.9998Z" fill="#D60F0F"/>
<path d="M6.22252 30H7.94302V29.5635H6.22252V30Z" fill="#D60F0F"/>
<path d="M8.13597 27.6407L7.12215 27.6407C7.02076 27.6407 6.94473 27.7179 6.94473 27.8208C6.94473 27.9237 7.02076 28.0009 7.12215 28.0009L8.13597 28.0009C8.23735 28.0009 8.31339 27.9237 8.31339 27.8208C8.28804 27.6922 8.21201 27.615 8.13597 27.6407Z" fill="#222221"/>
<path d="M9.65666 27.6407L8.64284 27.6407C8.54145 27.6407 8.46542 27.7179 8.46542 27.8208C8.46542 27.9237 8.54146 28.0009 8.64284 28.0009L9.65666 28.0009C9.75804 28.0009 9.83408 27.9237 9.83408 27.8208C9.80874 27.6922 9.75804 27.6407 9.65666 27.6407Z" fill="#222221"/>
<path d="M8.13603 27.0226L7.12221 27.0226C7.02083 27.0226 6.94479 27.0997 6.94479 27.2026C6.94479 27.3055 7.02083 27.3827 7.12221 27.3827L8.13603 27.3827C8.23741 27.3827 8.31345 27.3055 8.31345 27.2026C8.28811 27.074 8.21207 26.9968 8.13603 27.0226Z" fill="#222221"/>
<path d="M9.65672 27.0226L8.6429 27.0226C8.54152 27.0226 8.46548 27.0997 8.46548 27.2026C8.46548 27.3055 8.54152 27.3827 8.6429 27.3827L9.65672 27.3827C9.75811 27.3827 9.83414 27.3055 9.83414 27.2026C9.83414 27.0997 9.75811 27.0226 9.65672 27.0226Z" fill="#222221"/>
<path d="M8.136 26.4066L7.12218 26.4066C7.0208 26.4066 6.94476 26.4838 6.94476 26.5867C6.94476 26.6896 7.02079 26.7667 7.12218 26.7667L8.136 26.7667C8.23738 26.7667 8.31342 26.6896 8.31342 26.5867C8.28808 26.4581 8.23738 26.4066 8.136 26.4066Z" fill="#222221"/>
<path d="M9.65669 26.4066L8.64287 26.4066C8.54149 26.4066 8.46545 26.4838 8.46545 26.5867C8.46545 26.6896 8.54149 26.7667 8.64287 26.7667L9.65669 26.7667C9.75807 26.7667 9.83411 26.6896 9.83411 26.5867C9.83411 26.4838 9.75808 26.4066 9.65669 26.4066Z" fill="#222221"/>
<path d="M13.864 27.6407L14.8779 27.6407C14.9792 27.6407 15.0553 27.7179 15.0553 27.8208C15.0553 27.9237 14.9792 28.0009 14.8779 28.0009L13.864 28.0009C13.7626 28.0009 13.6866 27.9237 13.6866 27.8208C13.712 27.6922 13.788 27.615 13.864 27.6407Z" fill="#222221"/>
<path d="M12.3433 27.6407L13.3571 27.6407C13.4585 27.6407 13.5346 27.7179 13.5346 27.8208C13.5346 27.9237 13.4585 28.0009 13.3571 28.0009L12.3433 28.0009C12.2419 28.0009 12.1659 27.9237 12.1659 27.8208C12.1912 27.6922 12.2419 27.6407 12.3433 27.6407Z" fill="#222221"/>
<path d="M13.864 27.0226L14.8778 27.0226C14.9792 27.0226 15.0552 27.0997 15.0552 27.2026C15.0552 27.3055 14.9792 27.3827 14.8778 27.3827L13.864 27.3827C13.7626 27.3827 13.6866 27.3055 13.6866 27.2026C13.7119 27.074 13.788 26.9968 13.864 27.0226Z" fill="#222221"/>
<path d="M12.3433 27.0226L13.3571 27.0226C13.4585 27.0226 13.5345 27.0997 13.5345 27.2026C13.5345 27.3055 13.4585 27.3827 13.3571 27.3827L12.3433 27.3827C12.2419 27.3827 12.1659 27.3055 12.1659 27.2026C12.1659 27.0997 12.2419 27.0226 12.3433 27.0226Z" fill="#222221"/>
<path d="M13.864 26.4066L14.8778 26.4066C14.9792 26.4066 15.0552 26.4838 15.0552 26.5867C15.0552 26.6896 14.9792 26.7667 14.8778 26.7667L13.864 26.7667C13.7626 26.7667 13.6865 26.6896 13.6865 26.5867C13.7119 26.4581 13.7626 26.4066 13.864 26.4066Z" fill="#222221"/>
<path d="M12.3433 26.4066L13.3571 26.4066C13.4585 26.4066 13.5345 26.4838 13.5345 26.5867C13.5345 26.6896 13.4585 26.7667 13.3571 26.7667L12.3433 26.7667C12.2419 26.7667 12.1659 26.6896 12.1659 26.5867C12.1659 26.4838 12.2419 26.4066 12.3433 26.4066Z" fill="#222221"/>
</svg>
