<svg width="32" height="40" viewBox="0 0 32 40" fill="none" xmlns="http://www.w3.org/2000/svg">
<path d="M16 39C24.2844 39 31 32.2844 31 24C31 18.1564 27.2621 12.4111 23.5869 8.16309C22.0052 6.34445 20.311 4.62653 18.5146 3.01953L18.5117 3.0166C17.7781 2.35438 17.0224 1.71629 16.2471 1.10352C16.1442 1.02354 16.0672 1.0023 16.0146 1H16C15.9427 1 15.8608 1.01932 15.7539 1.10156C14.9784 1.71443 14.2225 2.35381 13.4883 3.0166L13.4854 3.01953C11.689 4.62653 9.9948 6.34445 8.41309 8.16309C4.73785 12.4111 1 18.1564 1 24C1 32.2844 7.71562 39 16 39Z" fill="#1C4FF5" stroke="black" stroke-width="2"/>
<path d="M23.007 26.8873C21.1074 25.3052 19.1867 24.2659 18.7644 24.0399C18.7223 24.0171 18.68 23.972 18.68 23.9042V22.4579C18.8911 22.0061 18.9968 21.5314 19.081 21.1021C19.2711 21.2377 19.5666 21.1699 19.9043 19.9046C20.1786 18.8875 20.0098 18.526 19.7776 18.4582C20.5375 14.5487 18.8067 14.4131 18.8067 14.4131C18.8067 14.4131 18.5324 13.8708 17.8358 13.464C17.3715 13.1705 16.7383 12.9443 15.8728 13.0121C15.5985 13.0348 15.3451 13.0799 15.0919 13.1703C14.7753 13.2832 14.5008 13.4415 14.2265 13.6448C13.9099 13.8708 13.6143 14.1194 13.3398 14.4358C12.9179 14.8877 12.538 15.4978 12.3902 16.221C12.2424 16.8539 12.2424 17.5316 12.4746 18.2096C12.158 18.1868 11.7991 18.3678 12.1369 19.6786C12.3902 20.6502 12.6224 20.8988 12.8123 20.9215C12.8967 21.4638 13.0445 22.0739 13.3611 22.6387V23.9044C13.3611 23.972 13.3398 24.0173 13.2766 24.0399C12.8546 24.2659 10.9339 25.3054 9.03424 26.8873C8.71224 27.1545 8.45164 27.497 8.27237 27.8887C8.09311 28.2804 7.99994 28.7108 8 29.1469V30.1639C7.99977 30.2737 8.0198 30.3825 8.05896 30.4841C8.09811 30.5856 8.15562 30.6779 8.22816 30.7556C8.30071 30.8333 8.38688 30.8949 8.48172 30.9368C8.57656 30.9787 8.6782 31.0002 8.78081 31H23.2181C23.3208 31.0002 23.4224 30.9788 23.5173 30.9369C23.6121 30.8949 23.6983 30.8333 23.7709 30.7557C23.8435 30.678 23.901 30.5857 23.9401 30.4841C23.9793 30.3826 23.9994 30.2737 23.9991 30.1639V29.1469C24.0202 28.2657 23.6613 27.4296 23.007 26.8873Z" fill="white"/>
</svg>
