<svg width="38" height="38" viewBox="0 0 38 38" fill="none" xmlns="http://www.w3.org/2000/svg">
<circle cx="19" cy="19" r="18.5" stroke="white" stroke-opacity="0.5"/>
<circle cx="19" cy="18.9999" r="14.2692" stroke="#1C4FF5"/>
<circle cx="19" cy="19.0001" r="12.3077" fill="#1C4FF5"/>
<path d="M14.044 22.1829C13.5594 22.1829 13.1651 22.5688 13.1651 23.0431C13.1651 23.5174 13.5594 23.9033 14.044 23.9033C14.5286 23.9033 14.9228 23.5174 14.9228 23.0431C14.9228 22.5688 14.5286 22.1829 14.044 22.1829Z" fill="white"/>
<path d="M14.0439 19.0859C11.8147 19.0859 10.0012 20.861 10.0012 23.0429C10.0012 25.2248 11.8147 26.9999 14.0439 26.9999C16.2731 26.9999 18.0867 25.2248 18.0867 23.0429C18.0867 20.861 16.2731 19.0859 14.0439 19.0859ZM14.044 24.9354C12.9778 24.9354 12.1105 24.0865 12.1105 23.043C12.1105 21.9995 12.9778 21.1505 14.044 21.1505C15.1101 21.1505 15.9774 21.9995 15.9774 23.043C15.9774 24.0865 15.1101 24.9354 14.044 24.9354ZM24.7309 22.1826C23.3718 22.1826 22.2701 23.261 22.2701 24.5913C22.2701 25.9215 23.3718 26.9999 24.7309 26.9999C26.09 26.9999 27.1917 25.9215 27.1917 24.5913C27.1917 23.261 26.09 22.1826 24.7309 22.1826ZM24.7309 25.1074C24.4397 25.1074 24.2036 24.8763 24.2036 24.5913C24.2036 24.3062 24.4397 24.0751 24.7309 24.0751C25.0221 24.0751 25.2582 24.3062 25.2582 24.5913C25.2582 24.8763 25.0221 25.1074 24.7309 25.1074Z" fill="white"/>
<path d="M27.4727 17.7785H25.8207V15.8556C25.8207 15.7608 25.8996 15.6836 25.9965 15.6836H26.4535C26.7447 15.6836 26.9808 15.4525 26.9808 15.1674C26.9808 14.8824 26.7447 14.6513 26.4535 14.6513H25.9965C25.318 14.6513 24.7661 15.1916 24.7661 15.8556V17.7785H21.989L20.4989 12.0323H20.8757C21.1669 12.0323 21.403 11.8012 21.403 11.5161C21.403 11.2311 21.1669 11 20.8757 11H12.8722C12.5809 11 12.3448 11.2311 12.3448 11.5161C12.3448 11.8012 12.5809 12.0323 12.8722 12.0323H12.9843L12.3751 17.249C11.5859 17.4676 10.8423 17.8396 10.1971 18.3468C9.97008 18.5253 9.93383 18.8502 10.1162 19.0724C10.2986 19.2946 10.6304 19.3301 10.8575 19.1516C11.7711 18.4334 12.8729 18.0537 14.0439 18.0537C16.8546 18.0537 19.1413 20.2919 19.1413 23.043C19.1413 23.2975 19.1215 23.5532 19.0823 23.8028C19.0382 24.0846 19.2357 24.348 19.5236 24.3912C19.5503 24.3952 19.5772 24.3972 19.6042 24.3972C19.8601 24.3972 20.0848 24.2145 20.1248 23.9593C20.1455 23.827 20.1615 23.6934 20.1732 23.5591H21.3771C21.8261 22.1645 23.1597 21.1504 24.7309 21.1504C26.1777 21.1504 27.423 22.0104 27.9617 23.2356C27.987 23.1744 28 23.109 28 23.043V18.2947C28 18.0096 27.7639 17.7785 27.4727 17.7785ZM14.0439 17.0215C13.8485 17.0215 13.6536 17.0311 13.4599 17.0494L14.0457 12.0323H17.5243V17.7785H17.0272C16.1431 17.2966 15.1258 17.0215 14.0439 17.0215ZM18.5789 17.7785V12.0323H19.4108L20.9009 17.7785H18.5789Z" fill="white"/>
</svg>
